<?xml version="1.0" encoding="utf-8"?>
<!-- Generator: Adobe Illustrator 21.1.0, SVG Export Plug-In . SVG Version: 6.00 Build 0)  -->
<svg version="1.1" id="Layer_1" xmlns="http://www.w3.org/2000/svg" xmlns:xlink="http://www.w3.org/1999/xlink" x="0px" y="0px"
	 viewBox="0 0 792 217" style="enable-background:new 0 0 792 217;" xml:space="preserve">
<style type="text/css">
	.st0{fill:#0B6AC3;}
</style>
<path class="st0" d="M591.3,133.6c11.8,6.1,23.8,11.6,35.7,17.5c2.8,1.4,5.6,2.3,8.4,0.1c6.6-5.2,5.3-15.2-2.4-18.9
	c-11.6-5.6-23.3-11.2-34.8-17c-1.8-0.9-3.2-2.6-5.1-4.2c14.7-5.9,20.3-9.4,25.8-19.1c8.8-15.8,6.5-28.3-6.2-35.5
	c-14.1-8-29.4-8.1-44.3-2.5c-5.9,2.2-11.1,5-17.8,4.1c-5.2-0.6-6.9,1.7-7.3,7.1c-0.1,2-0.1,4,0,6c0.9,13.3,1.6,26.6,3,39.8
	c1.3,11.8,3.5,23.6,5.4,35.4c0.7,5.1,0.7,10.5,2.3,15.4c2.5,7.6,7.8,9.1,14.9,5l0,0l0,0l0,0l0,0l0,0c0.7-2,1.4-3.9,2-5.9l0,0
	l0.1-0.3c0.6-1.9,1.3-3.8,1.9-5.7c0.1-0.6,0.2-1.3,0.3-1.9c0.1-3.5,0.5-7,0.3-10.5c-0.1-1.3-1.3-2.6-1.9-3.9
	c-2.2-5.6-5.7-11.1-2.9-18.3C576.4,125,583.7,129.7,591.3,133.6z M564.2,89.2c-1-13.3-0.9-13.8,12.4-17.3c7.8-2.1,15.7-1.8,23.5,0
	c5.1,1.1,5.7,3.3,2.8,7.8c-3.1,4.8-6.6,8.9-12.6,10.3c-6.7,1.6-13.3,3.6-19.9,5.5C566,95.1,564.5,93.6,564.2,89.2z"/>
<path class="st0" d="M170.1,121c3.1,11.4,6.1,22.2,9.1,33c1.4,5,4.5,8.9,8.7,11.8c2.1,1.4,4.5,2.2,7.2-0.2c4.7-4.1,5.5-6.1,2.8-14.1
	c-7.5-22.1-10.2-45.1-13.6-68.1c-0.9-5.9-1.8-11.8-3.6-17.4c-1.4-4.3-6.6-5.7-12-4.3c-4.3,1.1-6.1,3.8-5.5,9.1
	c0.9,7.9,2.1,15.8,3,23.7c0.8,7,0.7,7-8.2,10c-0.4-4.7-0.6-9.3-1.1-13.7c-0.8-7.2-1.3-14.6-3-21.7c-1.3-5.6-5.8-7.8-10.5-6.8
	c-5.9,1.2-7.5,3.2-7.8,9.7c-0.1,2,0.2,3.9,0.3,5.9c0.5,13.8,4.2,27.5,1.6,41.5c-0.3,1.8,0.5,3.9,1,5.8c0.9,3.8,1.9,7.6,2.8,11.5
	c1.2,5.2,2.2,10.4,3.3,15.6c1,4.9,4.2,8.2,8.3,10.6c3.9,2.3,7.2,1.8,9.3-2.1c1.3-2.4,2-5.6,1.7-8.3c-0.6-4.9-2.2-9.7-3.1-14.6
	C158.6,127,159,126.5,170.1,121z"/>
<path class="st0" d="M241.6,133.7c0.9-0.3,1.9-0.3,3.7-0.6c1.9,7,3.6,14,5.7,21c1.1,3.8,2.3,7.6,3.9,11.1c1.7,3.7,7.4,6.5,10.4,5.6
	c5.1-1.5,8.3-4.9,8.3-9.8c0-2.6-0.7-5.2-1.4-7.7c-2.3-8.3-4.5-16.6-7.1-24.8c-1.3-4.3-0.9-7.7,2.3-10.9c1.1-1.1,2.1-2.6,2.7-4.1
	c1.3-3.3-0.1-5.8-3.9-5.5c-5.6,0.4-7.2-2.3-8.7-7.2c-2.4-8.2-5.7-16-10.3-23.5c-6.9-11.3-19.8-12.5-27-1.5
	c-3.5,5.4-6.4,11.8-7.7,18.2c-3.7,18.9-5.7,38-5.7,57.3c0,2,0.2,4,0.9,5.9c1.7,5,5.3,7.9,9.2,7.6c3.6-0.3,7-4.5,7.5-9.3
	c0.5-5.3-0.9-12.1,1.8-15.4C229.4,136.2,236.3,135.6,241.6,133.7z M230.2,92.6c6.9,6.6,6.7,14.3,9.4,21.5c-4.2,1.5-7.7,2.7-12.7,4.5
	C228.1,109.3,229.1,101.7,230.2,92.6z"/>
<path class="st0" d="M100,66.4c1.2,6.2,2.3,10.3,2.6,14.6c0.4,4.9,2.7,8.7,5.7,12.4c1.8,2.2,3.6,4,6.7,2.8c2.7-1.1,3.5-3.2,4-6.2
	c2.3-12.3,0.6-23.6-5.3-34.7c-4.7-8.9-12.3-12-21-7.4c-9.4,5-14.9,13.3-17.8,23c-4.8,16.1-8.2,32.6-7.9,49.5
	c0.2,10.8,0.3,21.7,5.6,32c4.4,8.6,10.8,14.1,19.8,16.4c3,0.8,6.5,0.4,9.5-0.4c9.3-2.5,14.3-9.9,19.5-17.5c3.7-5.4,4-9.7,1.5-15.3
	c-2.8-6.2-6.7-7.4-11-2.4c-3.2,3.7-5.6,8-8.4,12.1c-2.1,3.2-4.6,5.9-8.8,5.5c-4.6-0.4-5.6-4.1-6.4-7.8c-5.7-24.4-2.2-48,6.5-71.1
	C95.5,70.4,97.3,69.2,100,66.4z"/>
<path class="st0" d="M457.8,147.1c0.8,16.2,12.1,24.6,25.3,22.1c9.1-1.7,18-4,25.9-9c8.7-2.2,13.3-8.9,17-16.3
	c0.8-1.5,1.4-3.8,0.9-5.2c-0.9-2.2-2.9-2.5-5.7-2.1c-14,2.1-26.8,8.2-40.2,12.3h-0.1c-0.6-0.3-1.2-0.4-1.8-0.2
	c-1.2-5.5-3-11.1,1.8-16l0,0c4.8-1.9,9.7-3.8,14.5-5.7l0,0c11.7-2.7,18.6-10.4,22-21.5c0.5-1.5-0.1-4.3-1.2-5.2
	c-1.1-0.9-3.8-0.9-5.4-0.3c-8.5,3.4-16.8,7.2-25.2,10.8c-3.5,0.7-6.5,1.2-6.1-4.2c0.5-7.6,0.5-15.2,0.6-22.8c0.1-8.5,0-8.5,8-10.9
	c2.8-0.8,5.8-1.1,8.7-1.9c4.7-1.3,9.3-2.8,14-4.3c0.2-0.7,0.6-1.4,0.9-2.1c-0.3,0.7-0.7,1.4-0.9,2.1c6.5,0.4,10.2-4.1,13.5-8.6
	c2.2-3,1-7.1-1.7-7.2c-6.5-0.1-13,0.2-19.5,0.4c-7.4,1.1-14.9,1.7-22.1,3.6c-6.3,1.6-12.5,4.3-18.3,7.4c-6.6,3.5-6.5,4.6-4,12
	c0.5,1.5,1.8,3.1,1.7,4.6c-1.2,14.6,1.7,29.7-4.1,43.9c-0.5,1.2-0.8,2.8-0.3,3.8C458.9,133.3,457.5,140.2,457.8,147.1z"/>
<path class="st0" d="M343.2,112.9c11.8-8.7,17.8-31.5-1.4-41.2c-11.1-5.6-22.6-6.8-34.5-7.2c-9.1-0.2-16.9,2.7-24.1,7.9
	c-7.1,5.1-7.7,12.9-2.1,19.6c1.6,1.9,3.4,4.1,4,6.5c4.2,16.7,7.9,33.5,12.2,50.1c1,3.7,3,7.5,5.5,10.3c4.6,5.2,10.8,3.8,12.8-2.9
	c1-3.3,0.7-7.1,1.1-10.6c-1.4-7.2-2.8-14.4-4-20.9c5.6-1.5,10.2-2.6,14.7-3.8C332.6,118.1,338.5,116.3,343.2,112.9z M308.1,106.4
	c0.3,0.9,0.6,1.8,0.9,2.7C308.6,108.3,308.3,107.4,308.1,106.4c-2-6.6-3.9-13.3-6-20.3c10.6-4.3,20-1.5,29.3,2
	c3.8,1.4,4.1,4.5,0.5,6.7c-5.6,3.4-11.8,5.9-17.7,8.8C312.2,104.6,310.1,105.5,308.1,106.4z"/>
<path class="st0" d="M410,75.2c4.9-0.6,9.8-1.3,14.7-2c2.1-1.8,4.6-3.3,6-5.5c1.3-2,2.4-5.2,1.7-7.1c-1.4-3.9-4.9-5.7-9.3-5.1
	c-0.7,0-1.3-0.1-2-0.1c-0.6,0-1.2,0.1-1.9,0.1c-15.2,0.6-30.5,1.2-45.7,1.9c-4,0.2-8,0.5-11.9,1.1c-5.4,0.8-9.1,3.9-9.3,7.4
	c-0.3,4.6,3.3,10.2,7.9,11.5c2.1,0.6,4.6,0.2,6.8-0.1c5.8-0.8,11.6-1.6,16.3-0.3c1.3,21,2.1,40.9,3.8,60.7c0.8,8.9,3,17.6,4.9,26.4
	c1.1,4.9,4.6,7.1,9.4,7.2c4.5,0,8-2.6,9-7.6c0.7-3.5,0.6-7.3,0.1-10.8c-1.4-9.2-3.7-18.2-4.6-27.4c-1.4-14.2-2.1-28.5-2.8-42.7
	C402.8,76.9,404.1,75.9,410,75.2z"/>
<path class="st0" d="M693.9,91c3.3,19.2,7.3,38.3,11.3,57.4c0.6,2.6,2.6,5.4,4.7,7.2c4.9,4.1,9.9,2.2,11.9-4.1
	c0.8-2.5,1.4-5.1,2.2-8c-1.5-6.3-3.2-12.6-4.6-19c-5.1-23-8.6-46.1-10.2-69.6c-0.5-7.1-5-10.4-12.2-9.5c-5.1,0.6-7.6,4.7-6.9,11.1
	C691.3,68,692,79.6,693.9,91z"/>
</svg>
