<?xml version="1.0" encoding="utf-8"?>
<!-- Generator: Adobe Illustrator 21.1.0, SVG Export Plug-In . SVG Version: 6.00 Build 0)  -->
<svg version="1.1" id="Layer_1" xmlns="http://www.w3.org/2000/svg" xmlns:xlink="http://www.w3.org/1999/xlink" x="0px" y="0px"
	 viewBox="0 0 872 217" style="enable-background:new 0 0 872 217;" xml:space="preserve">
<style type="text/css">
	.st0{fill:#266BB4;}
</style>
<g>
	<path class="st0" d="M562.6,50.4c-10.2-0.1-20.5,0-30.7,0.6c-10.9,0.7-21.8,2.6-32.7,3.1c-7.1,0.3-12.9,1.8-16.9,9.7
		c-2.5-10-9.3-10.2-16.4-9.6c-4,0.3-7.9,1-11.9,1.3c-13.3,0.9-26.6,1.5-39.8,2.5c-6.1,0.5-10.1,4.5-10.6,9.7
		c-0.6,5.6,3.3,10.7,9.6,12c3.6,0.7,7.3,0.9,10.9,1c8.2,0.3,8.2,0.2,8.7,7.9c0.1,1.3-0.1,2.7,0.1,4c2.1,18.8,4.2,37.6,6.5,56.4
		c0.4,3.2,1.3,6.7,3,9.4c3.5,5.6,9.9,5.3,12.6-0.7c1.7-3.8,2.8-8.3,2.6-12.4c-0.6-10.3-2.4-20.5-3.4-30.7c-1-10.2-1.8-20.5-2.6-30.8
		c-0.3-3.3,1.2-4.9,4.5-5.2c4-0.4,7.9-1.3,11.9-1.6c5-0.4,8.9-2.2,11.4-6.9c0.7-1.3,2.1-2.1,3.2-3.1c6,7.5,6,15.5,5.5,23.9
		c-0.6,9.6-1,19.3-0.1,28.8c1.1,11.5,2.9,23,5.7,34.3c1.9,8,8.2,12.4,15.7,11c15.7-2.9,30.9-7.5,40.9-21.4c2.2-3.1,4.5-6.7,5.1-10.4
		c1-5.9-3.9-9.1-9.4-6.7c-3,1.3-5.7,3.4-8.7,4.6c-6.7,2.8-13.4,5.6-20.4,7.8c-4.3,1.4-6.7-0.3-7.7-4c-1.1-4,0.1-5.9,4.4-7.1
		c12-3.3,24.7-5,34.3-14.5c3.1-3.1,4.9-6.1,5.3-10.1c0.5-4.4-2.7-7.5-7.3-6.9c-1.3,0.2-2.5,1-3.7,1.3c-11.1,3.1-22.3,6.1-34.7,9.5
		c0.2-9.9,0.3-18.7,0.7-27.5c0-0.9,2-2.2,3.2-2.3c10.1-1.6,20.3-2.7,30.4-4.4c7.8-1.3,15.6-3,23.2-5c4.3-1.1,7.9-7.8,6.8-12.1
		C570.3,51.1,566.2,50.5,562.6,50.4z"/>
	<path class="st0" d="M663.1,129.4c-2.7-1.1-5.7-1.6-8.6-2.4c-7.4-2-15.4-2.4-23-6.8c5.3-3.1,10-5.6,14.3-8.5
		c7.9-5.5,15.1-11.5,18.2-21.4c3.4-10.8,1.4-18.4-8.6-23.5c-17-8.8-34.7-13.1-53.4-4.5c-1.5,0.7-3.1,0.9-4.7,1.3
		c-0.6-1.1-1.2-2-1.6-2.9c-1.9-3.9-4.5-6.6-9.2-5.8c-3.6,0.7-6.6,5-6.9,9.9c-0.2,3.3-0.3,6.7,0.3,10c2.7,13.4,3.7,26.9,3.7,40.5
		c0,11,0.1,21.9,0.6,32.9c0.2,4.9,0.9,10,2.6,14.6c1.9,5.2,9.2,5.8,11.8,1c2.2-3.9,3.5-8.5,4.5-12.9c0.9-4.4,0.8-9.1,1.1-13.1
		c14.4,3.7,28.4,7.5,42.5,10.7c8.9,2,15.9-1.8,19.7-9.4C669.2,134,668.4,131.5,663.1,129.4z M603.5,107.7
		c-0.5-6.5-1.2-12.3-1.3-18.1c0-5.9,1.4-7.7,7-9c12.4-2.9,24,0.5,37.3,5.1C633.2,97.7,618.2,101.6,603.5,107.7z"/>
	<path class="st0" d="M814.2,135c-13.6-0.4-27.2-0.1-40.8-0.1c-4.1,0-8.3-0.2-13.5-0.3c7-9.5,12.9-16.6,17.9-24.4
		c6.1-9.5,10.6-20,11.3-31.5c1-15.5-5.9-24.7-21-25.9c-16.1-1.4-30.9,3.1-43.2,14c-3.4,3-6.4,6.7-8.8,10.6c-3.2,4.9-0.9,9.7,1.7,14
		c1.5,2.6,6.2,3.1,8.8,1.1c1.9-1.4,3.4-3.1,5.1-4.8c8.8-8.8,20.2-11,31.8-11.8c6.7-0.5,8.6,2.6,6.1,8.6
		c-5.4,13.1-13.1,24.4-24.3,33.4c-5.9,4.7-11.9,9.5-16.6,15.3c-7.3,8.8-1.7,19.5,7.8,22.7c2.8,0.9,5.9,1.6,8.8,1.7
		c21.3,0.4,42.5,0.9,63.8,0.7c8.8-0.1,12-3.7,13.3-12.6C823.3,138.7,821.2,135.2,814.2,135z"/>
	<path class="st0" d="M294.6,132.8c-1.3-5.3-1.7-10.1,0.2-15.5c3.1-8.7,2.6-8.8-5.6-13.5c-1.3-0.7-2.5-2.1-3.2-3.4
		c-1.4-3-3-6.1-3.6-9.3c-2.7-15.1-11.5-27.2-19.1-40c-2.4-4.1-5.5-6.1-10.4-6c-8.2,0.1-16.5,4.9-18.9,13
		c-3.1,10.1-5.9,20.4-7.7,30.7c-3.2,18.6-5.5,37.4-8.3,56c-0.6,3.9-1.6,7.8-2.4,11.6c-0.5,4.8,1.6,8.6,4.5,11.9
		c2.5,2.9,6.1,2.9,8.3-0.5c2.1-3.3,3.9-7,4.9-10.7c1.5-5.1,1.9-10.4,3.3-15.6c0.4-1.4,2.7-3.5,3.7-3.3c9.4,2,17.5-2.7,26-4.8
		c8.9-2.2,8.9-2.7,11,6.4c1,4.2,1.2,8.6,2,12.8c0.7,3.5,1.6,7,2.6,10.5c1.1,3.8,3,6.7,7.6,6.5c4.2-0.2,7-2.4,8.1-7.5
		c0.7-3.2,0.9-6.7,0.5-9.9C297.2,145.8,296.2,139.2,294.6,132.8z M262.2,110.1c-6.9,2-13.8,3.7-23.5,6.3c2.9-15.7,5.2-29,7.8-42.2
		c0.3-1.7,1.9-3.2,3-4.8c1.6,1.3,3.6,2.4,4.9,4c6.7,8.5,8.9,19,12.6,28.8C269.1,107.8,268.6,108.2,262.2,110.1z"/>
	<path class="st0" d="M191.1,132.3c-1.2-6.9-2.4-13.3,1.6-20.1c3.1-5.2,2.1-7.3-2.9-10.6c-3-2-3.5-4.5-3.7-7.5
		c-0.7-8.9-1.4-17.9-2.3-26.8c-0.4-4.3-0.9-8.6-2.3-12.6c-0.9-2.7-2.9-5-6.6-5.2c-3.6-0.2-6,1.1-7,4.2c-1,3.1-2.1,6.3-2,9.5
		c0.5,11.9,1.2,23.8,2.3,35.7c0.4,4.4-0.5,6.7-4.9,8.1c-6.5,2.1-12.8,4.9-20.1,7.7c-1.4-14.2-2.7-27.6-4-41.1c-0.3-3-0.4-6-1.3-8.8
		c-1.5-4.7-5.4-7-9.9-6.6c-4.1,0.4-6.4,2.9-7.1,8.2c-0.4,2.9-0.2,6,0,8.9c0.7,9.9,1.1,19.9,2.3,29.8c1.5,11.8,3.6,23.4,5.5,35.2
		c-1,8.1,2.3,15.1,4.9,22.4c0.4,0.5,0.8,1.1,1.2,1.6c1.8,4.4,5.4,6,9.3,4.2c3.6-1.7,6.8-4.7,5.9-9.7c0,0,0,0,0,0
		c0.6-1.3,1.8-2.7,1.8-4c-0.3-6.1-1-12.1-1.6-18.1l0.1-0.2c0.6-0.6,1.3-1.2,1.9-1.7c4-1.6,7.9-3.3,12-4.9c6.4-2.5,7.1-2,8.2,5
		c1,5.9,1.9,11.8,3.2,17.6c0.7,3.2,1.7,6.6,3.7,9c1.7,1.9,5.1,3.2,7.7,3.3c3.2,0.1,5.3-2.5,5.6-5.9c0.3-2.9,1.3-5.9,1.1-8.8
		C193.2,144.1,192.2,138.2,191.1,132.3z"/>
	<path class="st0" d="M378.8,53.4c-15.2-6.3-31-6.7-46.9-4.2c-7.9,1.2-15.2,4.4-19.8,11.8c-5.9,9.7-2.4,17.1,8.8,18.6
		c0.9,2.8,1.9,5.6,2.6,8.5c4.7,19.6,9.2,39.3,13.9,58.9c1.9,8.2,4.8,11.2,9.6,10.5c5.1-0.7,7.6-4.6,7.8-12.1c0-1.3,0.1-2.7-0.2-4
		c-1-5.5-1.7-11.1-3.2-16.5c-1.1-4.1,0.1-6,3.8-7.5c5.2-2.2,10.2-4.8,15.2-7.4c14.1-7.5,21.1-19.5,21.9-35.3
		C392.7,65.6,387.2,56.8,378.8,53.4z M370.6,81.9c-7,6.2-14.6,11.6-25.1,15.3c-2-7.7-3.9-15-5.8-22.4c-0.6-2.6,1.1-3.9,3.3-3.9
		c8.6-0.1,17.3-1.4,25.6,1.9C374.8,75.2,375.4,77.6,370.6,81.9z"/>
	<path class="st0" d="M99.3,125.7c-1.3,1.8-1.9,4.1-2.7,6.2c-1.4,3.6-3.5,6.3-7.6,7.1c-9.2,1.8-19.2-5.2-20.5-14.5
		c-2.4-17,1.2-33,8.6-48.3c2.7-5.6,6.3-8.2,8.7-6.4c3.8,2.9,1.7,6.6,0.4,9.9c-2.2,5.8,0.4,10.5,3.4,14.7c3.4,4.6,8,4.3,11.7-0.1
		c3.8-4.6,5.3-9.9,4.2-15.1c2-10.3-2-18.3-6.9-25.9c-6.1-9.5-16.9-11.3-25.9-4.3c-3.6,2.8-7.3,6.1-9.6,9.9
		C48.7,82.5,43.8,108.1,53,134.7c4.9,14.3,15,24.8,31.5,27.1c9.9,1.3,18.3-1.3,23.5-9.6c4.8-7.8,6-16.7,1.8-25.6
		C107.1,121.3,102.9,120.8,99.3,125.7z"/>
</g>
</svg>
