<?xml version="1.0" encoding="utf-8"?>
<!-- Generator: Adobe Illustrator 21.1.0, SVG Export Plug-In . SVG Version: 6.00 Build 0)  -->
<svg version="1.1" id="Layer_1" xmlns="http://www.w3.org/2000/svg" xmlns:xlink="http://www.w3.org/1999/xlink" x="0px" y="0px"
	 viewBox="0 0 1499 230" style="enable-background:new 0 0 1499 230;" xml:space="preserve">
<style type="text/css">
	.st0{fill:#2669B3;}
</style>
<g>
	<path class="st0" d="M864,198.3c5.1-1.3,10.7-5.8,14.8-4.6c4.6,1.4,8.1,7.3,11.7,11.6c3.6,4.4,8.4,5.3,13.4,4.8
		c7-0.7,9.9-8,5.8-13.6c-1.2-1.6-2.4-3.2-3.5-4.8c-2.4-3.5-6.9-7.2-6.6-10.5c0.4-3.9,4.6-7.5,7.6-11c14-16.1,18.7-43.4,2.1-61.7
		c-4.3-4.8-8.4-6.7-14.5-6.3c-4.9,0.3-7.8,3.4-10.7,6.5c-16,17.3-19.6,37.7-14.1,60.1c0.8,3.2,0.6,5.2-2.4,6.3
		c-8.7,3.2-17.3,6.8-26.2,9.2c-10.5,2.8-19.9-1-24.1-9.2c-3.4-6.7-4.4-13.9-3-21.3c1.1-5.8,4-10.5,10-12.7c2.2-0.8,4.3-1.8,6.2-3.1
		c5.3-3.5,6-8.9,1.4-13.3c-2.3-2.2-5.4-3.9-8.4-5.1c-6.3-2.6-11.7-6.4-15.5-11.9c-5.7-8.2-8.2-17.4-7.4-27.3
		c0.6-7.5,7-13.5,14.3-14.7c7-1.1,11.2,2.9,14.2,8.5c2.9,5.6,5.5,11.3,8.4,16.9c1.4,2.6,3,5.2,5.1,7.2c2.3,2.3,5.3,2.7,8.2,0.9
		c4.7-2.8,7.5-10.6,5.3-15.6c-2.9-6.7-6.2-13.2-9.4-19.7c-9.2-18.4-25.4-21.1-45.1-15.2c-16.6,5-23.6,22-22.5,37.9
		c1.2,18.2,8.8,33.1,22.9,44.8c-1.5,3.4-2.6,6.9-4.4,10c-7.6,13.1-5.2,25.9-0.2,39.1c5.6,14.8,16.2,21.6,31.6,23.2
		C841.3,205.1,852.6,201.3,864,198.3z M897.6,126.5c5.1,12.6,1.4,22.7-7.6,33.5C886.7,146.3,890.1,136.1,897.6,126.5z"/>
	<path class="st0" d="M328.4,124.5c1.3-8.7,3-17.3,8.1-25.9c2.9,3.6,3.6,7,4.1,10.5c2.9,17.6,5.7,35.2,8.8,52.8
		c0.9,4.9,2.4,9.6,4,14.3c0.6,1.7,2.1,3.9,3.6,4.2c9.9,2,19.3-0.9,17-14.2c-1.2-6.9-2.7-13.7-4-20.5c-3.6-18.2-7.1-36.4-10.7-54.5
		c-1.4-7.3-5.7-12.7-11.7-16.7c-5.5-3.7-11.2-4.9-17.5-0.6c-5.5,3.7-9.2,8.5-11.9,14.2c-2.4,5-4.6,10.1-7.7,17
		c-0.9-2.5-1.1-3.2-1.3-3.8c-3.3-7.6-5.4-15.9-10-22.5c-9.2-13.3-21-12.1-28.3,2.2c-4.1,8-5.3,16.9-6,25.8c-1.6,21,1,41.8,2.6,62.7
		c0.4,5.3,1,10.6,1.9,15.8c1.1,6.4,3.1,7.9,9.4,7.6c8.7-0.3,13.5-4.9,13-13.8c-0.5-8.9-2.2-17.7-3.2-26.6c-1.5-13.4-3-26.8-1.3-41.6
		c1.4,2,2.5,2.9,2.8,4c1.5,5.4,2.8,10.9,4.1,16.4c2.5,10.3,4.5,20.7,7.5,30.9c2.3,8.1,9,10,16.2,5.4c3.6-2.3,5.5-5.4,6-9.7
		C325.1,146.7,326.8,135.6,328.4,124.5z"/>
	<path class="st0" d="M170.8,193.8c3.9,0.2,6.6-1.8,7-5.6c0.4-4.2,0.6-8.6,0.1-12.8c-2.2-18-4.6-36-7.2-54
		c-2-14.1-4.4-28.1-6.7-42.2c-0.8-4.8-3-8.4-7.1-11.4c-8.2-6.1-15.3,0.1-15.7,7.4c-0.2,5.2,0.8,10.5,1.4,15.7
		c1.4,11.2,2.9,22.4,4.3,33.5c0.3,2.4,0.5,4.6-2.8,5.1c-8.5,1.3-16.9,2.9-25.5,4.1c-6.1,0.8-8.9,1.8-9-7.2
		c-0.3-16.3-1.8-32.5-1.9-48.8c-0.1-5.8-2.1-10.4-4.8-14.8c-3.1-5.2-10.2-4.7-13,0.7c-1.6,3.1-2.5,6.8-2.7,10.2
		c-1.5,32.2,0,64.3,2.5,96.4c0.6,7.8,1.3,8.5,8.6,8.8c2.3,0.1,4.7-0.1,7-0.3c3.9-0.3,6.1-2.5,6.3-6.4c0.2-3.6,0.3-7.3,0.1-10.9
		c-0.2-4.2,1.5-5.8,5.7-6.3c10.5-1.3,20.9-3,32.6-4.7c0.2,1.1,0.5,2.4,0.7,3.6c1.4,9.2,2.2,18.5,4.4,27.5
		C158.1,193.8,160.4,193.3,170.8,193.8z"/>
	<path class="st0" d="M503.1,203.2c5.8,1.7,13.5-1.6,15.6-7.5c1.3-3.6,1.8-7.7,2-11.6c0.5-7.4,0.2-14.8,3.2-23.8
		c4.2,7.5,7.3,13.7,11,19.3c3.8,5.7,8,11.3,12.7,16.3c5.5,5.8,12.5,7,20.1,4c6.6-2.6,7.8-8.5,9.1-14.2c0.8-3.5,1-7.3,0.7-10.9
		c-1.1-13.9-2.5-27.7-3.8-41.6c-0.5-3.3-0.9-6.5-1.4-9.8c0,0,0,0,0,0c-0.5-5.3-1.1-10.7-1.6-16l0,0c0.1-2.6,0.4-5.2,0.3-7.8
		c-0.2-5.9-6.4-11.5-12.3-11.5c-4,0-8.1,4.6-8.4,10.2c-0.2,4.9,0.3,9.8,0.6,14.7c0,1.3,0,2.5,0,3.8c0.4,4.2,0.8,8.3,1.2,12.5
		c0,0,0,0,0,0c0.5,12.5,1,24.9,1.5,37.9c-1.1-0.8-1.8-1.1-2.1-1.6c-8.4-15.6-12.6-32.8-18.7-49.2c-2.1-5.6-3.7-11.3-5.9-16.9
		c-2.2-5.6-13.6-13.6-17.6-12.8c-5,1-8.6,8-8.9,17.3c-0.3,9.9-0.6,19.8-1,29.7c-0.8,19.4-1.7,38.9-2.4,58.3
		C496.8,197.8,499.2,202.1,503.1,203.2z"/>
	<path class="st0" d="M422.9,176c0.1-4.1,2.7-5.8,5.9-7.1c5.8-2.4,11.6-4.7,18.5-7.5c0.8,2.3,1.7,4,2.1,5.9
		c1.5,6.8,2.5,13.7,4.2,20.4c0.9,3.3,1.8,6.7,6.7,7.4c8.6,1.3,17.7-2.2,14.7-15.6c-2.4-10.6-4.8-21.2-7.2-31.8
		c-3.5-15.1-7-30.2-10.6-45.3c-1.8-7.4-3.5-14.8-5.6-22.2c-2.4-8.6-7.6-14.6-16.8-16.4c-6.5-1.2-9.3,0.4-13,6.1
		c-6.8,10.8-10.8,22.8-13,35.2c-2.8,16-4.8,32.1-7,48.2c-1,7.2-1.7,14.4-2.1,21.7c-0.3,4.3-0.4,9.1,4,11.5c4.4,2.5,8.9,1.3,13.2-1.1
		C420.8,183.4,422.8,180.2,422.9,176z M425.6,141.6c1.8-13.6,3.7-27.1,5.6-40.6c0.8,0.1,1.6,0.1,2.4,0.2c2.5,11.1,4.7,22.3,7.5,33.4
		c1.2,4.5-0.3,6.8-4.3,8.4c-2.1,0.8-4.1,2.2-6.3,2.9C426.7,147.2,425,145.8,425.6,141.6z"/>
	<path class="st0" d="M239.8,183.9c4.9-9.3,6.8-19.6,7.4-29.8c1.2-20.8,0.6-41.6-1.9-62.4c-0.7-5.8-2.6-8.7-7.4-11.3
		c-6.9-3.9-12.1-2.1-13.3,5.7c-0.2,1.6,0.2,3.3,0.2,4.9c-0.1,23.9,3,47.9-2.4,73.9c-1.6-3-2.5-4.3-2.9-5.7
		c-1.8-7.4-3.9-14.7-4.9-22.2c-2.5-18-6.3-35.9-3.7-54.4c0.8-5.7-6.1-12-12.1-12.3c-4.5-0.2-8.4,3.9-9.3,9.9c-0.1,1-0.1,2-0.2,3
		c-2.3,27.1,1.7,53.6,8.6,79.6c2.5,9.5,7.2,18.5,14.8,25.6C221.6,196.9,234,195,239.8,183.9z"/>
	<path class="st0" d="M640.5,197c3.5-1.3,7.1-4.1,9-7.2c4.5-7.7,6.2-16.2,2.3-24.8c-2.9-6.3-6-12.6-9.4-18.6
		c-6.5-11.2-13.5-22-19.8-33.4c-4-7.3-4.9-15.1,0-22.7c2.4-3.7,4.2-4,6.7-0.6c2.2,2.9,4.1,6.1,5.9,9.2c2,3.4,5,3.1,7.9,2.1
		c4.6-1.5,7.2-7.3,5.9-12.1c-1.9-7.3-6.2-13.2-11.6-18.2c-6.7-6.3-21.5-6.4-27.6,0c-11.6,12.3-17.5,27.9-9.6,44.5
		c5.7,11.9,12.6,23.3,19.2,34.8c3.3,5.7,7.3,11.1,10.8,16.7c2.1,3.5,3.8,7.9,0.6,11c-2.3,2.1-6.6,3.1-9.9,3
		c-7.8-0.3-13.2-5.7-18.4-10.7c-2.6-2.5-4.2-5.2-8.4-5.7c-2.2-0.2-4.6-3.4-6.9-0.8c-1.8,2.1-3.3,5.2-3.3,7.8c0,3.5,0.6,8,2.8,10.3
		c9.3,10.1,19.2,19.7,34.8,20.2C627.8,200.4,634.4,199.3,640.5,197z"/>
	<path class="st0" d="M1202.6,72.1c-2.6-3.2-9-5.7-11.1-4c-9.3,7.4-18.1,15.2-21.8,27.3c-4,13.1-4.7,26.6-5.5,40.1
		c-0.6,10.4,0.9,20.4,5,30.1c5.8,13.9,18.7,20.1,33.1,15.7c13.6-4.2,23.7-18.6,24.2-39c-0.5-13.1-5.6-30.2-10.7-47.3
		C1213.1,86.3,1208.2,79,1202.6,72.1z M1200.2,159.3c-4.4,5.8-10.5,4.4-12.4-2.8c-1.5-5.7-2.7-11.8-2.5-17.6
		c0.4-13.2,0.8-26.4,6.3-38.8c0.4-0.8,1.2-1.5,3.2-3.7c5.5,17,10.2,32.8,10.6,49.5C1205.5,150.3,1203.1,155.5,1200.2,159.3z"/>
	<path class="st0" d="M1151.1,113.1c-3.9-13.1-10.2-25-19.5-35.2c-3.8-4.1-7.7-5.6-13.1-4.9c-5.7,0.7-10.5,3.3-13.1,8.1
		c-3.8,7.2-8.2,14.4-8.5,23c-0.7,8.7-1.2,17.5-2.3,26.2c-0.7,5.7-2.9-0.4-4.3,0.3c-2.7-7.9-8.2-13.5-14.5-18.6
		c-5.4-4.4-5.3-4.3-2.5-10.8c2.9-6.7,5.1-13.6,4.4-21.1c-1.6-16.7-13.4-30-30.9-32.7c-21.8-3.4-29.1-0.7-38.3,15.8
		c-0.2,0.3-0.3,0.6-0.5,0.9c-3.7,6.8-2.7,10.3,3.8,14.8c1.6,1.1,3.4,3.2,3.7,5.1c1.3,10.9,1.8,21.8,3.3,32.7
		c3.2,22.6,6.6,45.2,10.3,67.8c1.4,8.4,4.4,10.8,12.3,8.3c10-3.1,20.8-4.1,29.9-10c11.9-7.6,20.8-17.2,22.6-32
		c1.4,0.7,2.9,1.5,4.3,2.2c1,3.1,1.6,6.4,2.9,9.4c6.6,15.1,22.1,21.1,37.1,14.2c13.5-6.2,22.5-18.9,19.8-35.4
		C1156.4,131.6,1153.9,122.3,1151.1,113.1z M1037.1,72.2c-0.2-4.9,0.9-5.7,5.8-5.1c5.3,0.6,9.1,3.2,11.4,8.2
		c4.3,9.8-0.6,25.5-9.8,30.6c-1.3,0.8-3.1,0.9-5.4,1.5C1038.3,95.3,1037.6,83.8,1037.1,72.2z M1063,163c-2.9,2-6.3,3.6-9.5,5.1
		c-2.9,1.3-5.1,0.5-5.8-3c-1.8-10-3.6-20.1-5.3-30.1c-0.2-3.1,0.5-5.3,4.1-5.6c1.3-0.1,2.7-0.6,3.7-1.3c6.7-4.7,11.9-1.5,16.4,3.4
		C1076.3,142.2,1077.2,153.2,1063,163z M1130.5,157.7c-4.9,3.1-7.8,2.4-10.4-2.8c-1.5-2.9-2.9-6.1-3.3-9.3
		c-1.5-14.2-1-28.5,1.2-42.7c0.3-1.9,1.4-3.6,2.1-5.4c0.9-0.4,1.7-0.8,2.6-1.2c0.8,1.5,1.7,2.9,2.3,4.4
		c5.5,13.2,10.4,26.6,12.5,40.8C1138.4,148.2,1136.5,153.9,1130.5,157.7z"/>
	<path class="st0" d="M1338.9,157.5c-7.8-12-16.1-23.6-28.1-32c-3.7-2.6-7.2-5.6-11.3-8.8c17.6-14.9,30.1-33,40.7-52.6
		c2-3.7,3.6-7.9,4.3-12c1-5.5-4.2-13-8.9-14c-4.8-1-8,1.1-11.3,7.6c-0.5,0.9-1,1.7-1.4,2.6c-8,19.6-20.4,36.1-35.9,50.4
		c-4.6,4.2-9.9,7.7-14.6,11.8c-5.8,5.1-5.3,11.3,0.9,15.6c1.9,1.3,4,2.3,6.1,3.3c17.7,8.9,31.9,21.5,41.6,38.8
		c3.3,5.9,9.3,6.1,14.4,7.1c4.2,0.8,7.3-3.2,6.7-7.7C1341.7,164.2,1340.8,160.4,1338.9,157.5z"/>
	<path class="st0" d="M1394.3,111.6c-5.1-5.7-11-10.7-15.9-16.5c-4.7-5.6-4-9.5,1.2-14.7c5.2-5.2,11.6-7.7,18.9-7.2
		c3.5,0.2,6.9,0.2,8.7-3.3c2-3.9,1-7.7-1.4-11.3c-4.4-6.4-11.1-7-17.7-6.4c-13.3,1.3-22.1,9.3-29.2,20c-3.5,5.3-4.7,10.8-3.7,17
		c1.7,10.8,8.5,18.6,15.6,26.1c5.7,6,11.9,11.6,17.6,17.6c9.5,10,9.4,10-1.2,18.5c-4.4-0.2-8.7-0.4-13.1-0.6c-4.7-1.9-7.7,1-9.6,4.4
		c-1.9,3.5-0.2,7.2,2.5,9.9c1.3,1.4,3.1,2.5,4.8,3.5c12.4,6.9,25,4.6,37.7-7c10.1-8.4,12-16.1,4.8-26.6
		C1408.5,126.6,1401.2,119.2,1394.3,111.6z"/>
	<path class="st0" d="M1267.3,108.6c0.1-5.7,0.5-11.3,0.3-17c-0.2-6-6-12.8-10.4-13c-6.4-0.2-11.7,5.4-12.2,13c-0.3,5-1.3,10-1,14.9
		c1.1,19.9,2.4,39.7,4,59.5c0.5,6.2,1.9,12.4,3.6,18.5c1.7,6.2,8.2,9.4,14.2,7.8c5.4-1.4,7.8-5.8,6.5-12.5
		C1267.7,156.3,1268.6,132.4,1267.3,108.6z"/>
</g>
</svg>
