<?xml version="1.0" encoding="utf-8"?>
<!-- Generator: Adobe Illustrator 21.1.0, SVG Export Plug-In . SVG Version: 6.00 Build 0)  -->
<svg version="1.1" id="Layer_1" xmlns="http://www.w3.org/2000/svg" xmlns:xlink="http://www.w3.org/1999/xlink" x="0px" y="0px"
	 viewBox="0 0 2401.9 291.1" style="enable-background:new 0 0 2401.9 291.1;" xml:space="preserve">
<style type="text/css">
	.st0{fill:#089AFC;}
	.st1{fill:#099BFC;}
	.st2{fill:#0A9BFC;}
</style>
<g>
	<path class="st0" d="M2019.8,140.8c-0.2,12.9-0.9,25.9-0.5,38.8c0.5,17.3,1,34.6,7.5,51.1c2,5.1,0.2,9.1-3.7,11.2
		c-4.2,2.3-8.9,1.1-12-3.7c-2-3-3.8-6.5-4.5-9.9c-2.3-11.7-5.1-23.5-5.8-35.4c-1.9-33.6-1-67.2,5-100.5c2.7-15.2,7.6-29.7,16.2-42.6
		c10.4-15.6,24.5-25.3,43.7-25.9c13.8-0.5,26.3,4,36.8,13.1c12.9,11.2,17,30.2,10.8,47.7c-3.1,8.7-8.3,15.9-15.2,21.9
		c-14.1,12.3-30.4,20.1-48.4,24.8c-7,1.8-7.2,2-3.8,8.4c3.6,6.8,7.1,13.6,11.5,19.8c11.9,16.8,24.1,33.5,36.7,49.8
		c5.5,7,12.4,12.9,18.7,19.3c1.4,1.4,3.1,2.6,4.3,4.1c3,3.7,3.3,8.4,1,12.1c-2.5,4-7.3,5.6-12.3,3.9c-1.9-0.6-3.7-1.6-5.3-2.8
		c-5-3.9-10.4-7.4-14.5-12.1c-22.7-26.2-43.7-53.7-59.5-84.8c-1.4-2.9-2.9-5.7-4.3-8.6C2021.5,140.5,2020.7,140.7,2019.8,140.8z
		 M2021.8,118.4c8.3-2.4,15.8-4.9,23.4-6.7c14.1-3.4,27-9.3,38.3-18.4c6.4-5.1,10.9-11.6,12.8-19.7c2.6-11-1.8-20.7-11.6-26.2
		c-15.5-8.7-32.6-5.5-43.6,8.9C2027.2,74.8,2023.5,96.4,2021.8,118.4z"/>
	<path class="st1" d="M2262.8,118.3c0.5-21.7,0.9-43.3,1.5-65c0.1-3.3,0.3-6.7,1.1-9.9c1.3-5.1,5-7.6,9.4-7.1
		c4.1,0.5,6.7,3.3,7.4,8.1c0.2,1.3,0.1,2.7,0.1,4c0,36.7,0,73.3,0.1,110c0,5.3,0.5,10.7,0.4,16c0,4.2,1.6,5.7,6,5.6
		c15.7-0.4,31.3-0.5,47-0.7c4.7-0.1,9.3-0.2,14-0.4c5.8-0.3,6.4-0.6,6.1-6.5c-0.6-15-1.9-29.9-2.4-44.9c-0.7-22.3-1.1-44.6-1.2-66.9
		c0-4.5,1.4-9.2,3.2-13.4c1.9-4.2,6.4-5.8,10-4.6c3.9,1.2,5.9,4.4,5.4,9.5c-2.6,25.4,0.9,50.6,2.3,75.8c0.7,13.3,1.8,26.6,2.9,39.9
		c0.4,5.3,1.5,10.5,2.2,15.8c0.2,1.6,0.6,3.3,0.6,4.9c0.7,17.6,1.3,35.2,2,52.8c0.1,3,0.6,6,0.4,9c-0.4,5-3.4,8.2-7.9,8.9
		c-4.3,0.7-8.7-1.3-10.4-6c-1.6-4.3-2.5-9-2.9-13.6c-1-11.3-1.5-22.6-2.3-33.9c-0.4-6.4-0.5-6.7-7-6.7c-20-0.1-40-0.2-60-0.1
		c-7.1,0-7.2,0.3-6.9,7.5c0.3,8.3,0.8,16.6,1.2,25c0.1,2.3,0.3,4.7,0,7c-0.8,5-4,8.2-8.4,8.6c-4.5,0.4-8.4-1.8-9.7-6.8
		c-1.3-4.8-2-9.8-2.2-14.8c-1.1-35.6-2-71.3-3-106.9C2262.3,118.3,2262.5,118.3,2262.8,118.3z"/>
	<path class="st1" d="M1708.6,148.2c1.7,0,3.3,0.2,4.9-0.1c19.3-3.6,38.6-7.1,57.9-10.8c8.5-1.6,13.3,0,14.9,5.6
		c1.6,5.7-1.6,10.7-9.8,12.5c-13.9,3.2-28.1,5.5-42.2,8.1c-7.2,1.3-14.5,2.3-21.7,3.5c-2.8,0.5-5.1,1.7-4.9,5.1
		c0.7,15.3,1.4,30.6,2.1,45.9c0,0.6,0.6,1.2,1.2,2.4c9.2-2.1,18.5-4.2,27.8-6.4c11.4-2.6,22.7-5.1,34-7.9
		c10.4-2.6,20.5-6.1,29.1-12.7c0.8-0.6,1.6-1.2,2.5-1.6c5-2.5,9.5-1.6,12.6,2.2c3,3.7,3.2,9-0.7,12.7c-4.8,4.5-10.1,8.9-15.9,11.9
		c-7.4,3.7-15.3,6.7-23.3,8.7c-21,5.2-42.1,10-63.3,14.4c-13.8,2.9-22-3-23.9-17c-1.2-9.2-1.4-18.6-1.8-27.9
		c-1.7-38,0.6-75.9,3.9-113.8c1.4-15.5,8.8-26.5,23.9-31.2c11.1-3.4,22.4-6.3,33.8-8.8c10.7-2.3,21.6-4,32.5-5.6
		c3.2-0.5,6.7-0.4,9.8,0.3c3.5,0.9,5.9,4,5.2,7.5c-0.5,2.6-2.6,5.3-4.8,6.9c-2,1.4-5.1,1.3-7.7,1.8c-15.7,3.2-31.4,6.1-47,9.6
		c-6.1,1.4-12,3.8-17.9,6.1c-5.1,2-7.9,6-8.3,11.5c-1.3,21.3-2.6,42.6-3.8,63.8C1707.8,146,1708.3,146.9,1708.6,148.2z"/>
	<path class="st1" d="M871.6,160.8c0.5,13.5,1.1,27,1.5,40.6c0.3,9,0.6,18,0.3,26.9c-0.1,3.5-1.4,7.2-3,10.3c-1.6,3.2-5,4.3-8.6,3.5
		c-3.7-0.8-5.6-3.4-6.3-7c-0.1-0.6-0.1-1.3-0.2-2c-0.7-24.6-1.6-49.2-2-73.8c-0.4-26.1,4.4-51.1,18.1-73.7
		c4.6-7.6,10.1-15,16.2-21.4C898,53.2,911.2,48,926.4,49.1c22.2,1.6,36.4,22.7,29,43.7c-6.9,19.9-21.6,32.5-40.8,39.7
		c-6.8,2.6-14.1,3.9-21.2,5.8c-7.4,2-7.7,2.6-3.3,9.1c4.7,6.9,9.5,13.7,14.7,20.1c16.8,20.7,35.2,40,54.8,58.1
		c1.2,1.1,2.6,2.1,3.6,3.4c3.4,4.1,3.6,8.2,0.8,11.8c-2.8,3.6-7.3,4.9-11.6,2.3c-4.5-2.7-8.9-5.9-12.8-9.5
		c-18.9-17.4-36.8-35.7-52.5-56.1c-4.4-5.7-8.7-11.6-13.1-17.4C873.3,160.4,872.4,160.6,871.6,160.8z M877.1,122.6
		c10.2-2.5,20-4.3,29.4-7.2c12.8-4,23-11.9,29.4-24c3-5.8,4.9-11.9,0.2-17.8c-4.6-5.8-10.7-7.2-17.9-5.7c-7.1,1.5-13.2,4.6-18.1,9.8
		c-11,11.5-18.3,25.2-22.9,40.4C876.8,119.2,877.1,120.6,877.1,122.6z"/>
	<path class="st0" d="M1843,171.5c3.4-23.4,6.4-46.8,10.4-70.1c1.4-8.1,5-15.8,8.4-23.4c2.1-4.8,5.3-9.3,8.7-13.3
		c13-15,30.9-16.2,46-3.3c7.7,6.6,13.3,14.8,18.2,23.6c12.4,22.1,19,46.2,23,70.9c3.7,23,6.1,46.2,8.9,69.3c0.3,2.6,0.4,5.4-0.1,7.9
		c-0.9,4.8-4.5,8-8.7,8.5c-4.2,0.5-8.4-2-10.2-6.5c-1.1-2.7-1.6-5.8-2-8.7c-1.8-14.2-3.4-28.4-5.1-42.6c-0.8-6.9-1-7.2-8-6.9
		c-20.6,0.8-41.2,1.7-61.8,3c-8.1,0.5-8.1,1-8.7,8.9c-0.7,10-1.4,19.9-2.1,29.9c-0.1,1.7,0,3.4-0.4,5c-0.9,3.9-3.3,6.5-7.5,6.9
		c-4.1,0.4-7.5-1.4-8.7-5.2c-1.2-3.7-1.6-7.8-1.5-11.7c0.6-14,1.5-27.9,2.3-41.9C1843.8,171.6,1843.4,171.5,1843,171.5z
		 M1865.1,139.7c0.2,0.1,0.5,0.1,0.7,0.2c-0.5,4.3-1,8.6-1.3,12.9c-0.7,9.2-0.6,9.2,8.1,8.3c9.3-0.9,18.5-1.8,27.8-2.4
		c10.3-0.7,20.6-1.1,30.9-1.4c4.1-0.1,5.2-1.7,4.4-5.5c-4-20.3-9.1-40.3-19.5-58.4c-3.1-5.4-6.9-10.7-11.1-15.2
		c-7.7-8.2-15.3-8-21.5,1.2c-4.4,6.5-8.1,13.9-10.2,21.4C1869.8,113.5,1867.8,126.7,1865.1,139.7z"/>
	<path class="st0" d="M2132.8,165.2c2.8-30.2,7.2-58.9,16.3-86.5c3.5-10.6,7.9-21.4,14-30.7c16-24,41.3-21.9,54,4.1
		c9,18.4,12.1,38,8.2,58.3c-0.3,1.6-0.5,3.3-1.2,4.8c-1.6,3.3-4.4,5.2-8,5c-4.1-0.2-7-2.7-7.6-6.7c-0.5-2.9-0.1-6,0.2-8.9
		c1.6-13.6-0.6-26.6-5.5-39.2c-1-2.5-2.1-4.9-3.5-7.2c-6.1-10.1-13.4-10.7-20-0.9c-4.2,6.3-7.8,13.3-10.1,20.5
		c-11.7,36.4-18.2,73.7-17.2,112c0.3,10.4,2.1,20.5,6,30.2c3,7.3,7.4,13.4,13.8,18c9.7,7,19.3,6.5,28.1-1.6c3.2-2.9,5.7-6.4,8.4-9.8
		c1.4-1.8,2.5-4,3.8-5.9c4.1-6.1,8.4-8,13.2-5.8c5.2,2.5,7,8,3.9,14.6c-5.1,11-12.2,20.7-22.6,27.4c-14,9.1-28.4,8.6-42.5,0.3
		c-12.9-7.6-21.1-19.1-26-33.1C2131.5,204.6,2131.8,184.3,2132.8,165.2z"/>
	<path class="st1" d="M1602.2,78c-0.4,14.2,2.9,27.9,8.3,40.8c5.3,12.6,11.8,24.6,17.8,36.9c5.6,11.4,11.7,22.5,16.5,34.2
		c3.2,7.9,5.5,16.5,6.6,25c2.4,18-7.4,31.6-25.3,34.7c-21.4,3.7-39.4-3.4-53.4-19.9c-2.3-2.7-4-6.2-5.3-9.6
		c-2.2-5.7-0.4-10.6,4.2-12.8c4.2-2.1,8.9-0.8,12.3,3.5c0.8,1,1.4,2.3,2.1,3.4c6.7,11,17.5,14.8,29.5,16.3c2.6,0.3,5.3-0.3,7.9-1
		c5.9-1.6,8.5-4.7,7.9-10.9c-0.6-5.6-1.5-11.3-3.6-16.5c-4.4-10.8-9.5-21.3-14.5-31.8c-6.8-14.1-14.5-27.8-20.6-42.2
		c-7.2-17.3-11.8-35.4-10.1-54.5c1-11.2,4.5-21.5,11.8-30.3c9.6-11.5,21.9-15.9,36.6-13.2c8.2,1.5,16.1,4.4,23,9.3
		c12.6,9.1,17,21.8,15.8,36.7c-0.3,3.4-2.1,7-4.2,9.9c-2.3,3.2-6.1,4-9.9,2.4c-3.3-1.5-5.1-4.3-5.1-7.9c0-2.3,0.7-4.6,0.8-6.9
		c0.3-8.7-2.6-15.6-10.7-19.9c-22.9-12-34.3-0.5-37.9,18.3C1602.2,73.9,1602.3,76,1602.2,78z"/>
	<path class="st2" d="M540.2,46.6c13,1.3,24.4,7.4,30.3,21.7c0.9,2.1,2.6,4.1,3,6.3c0.7,3.5,1.5,7.3,0.7,10.6
		c-1.9,7.7-10.3,9.4-15.4,3.3c-1.8-2.2-3.4-5.2-3.8-8c-2-15.8-21.1-18.3-31.6-11.4c-16.4,10.7-21.7,37.8-9.7,53.2
		c5,6.5,11.5,12,17.4,17.8c10.5,10.2,21.8,19.7,31.5,30.6c6.7,7.6,12,16.7,16.6,25.9c5,10,4.4,20.6,0,31c-8,18.7-26.3,27.7-45.8,22
		c-12.7-3.7-23.6-10.7-32.9-20.1c-0.9-0.9-1.9-1.9-2.6-3c-3.8-5.2-3.7-9.9,0.3-13.4c3.6-3.2,8-2.9,12.7,0.6
		c5.5,4.2,10.9,8.8,16.7,12.5c3.9,2.4,8.4,4.2,12.9,5.1c14.2,2.8,25.8-9.4,22.2-23.6c-1.3-5-3.9-9.9-6.7-14.4
		c-7.8-12.2-18.2-22.1-29-31.5c-7-6.1-14.2-12.2-20.7-18.8c-23.8-24.3-24.3-57.4-1.3-82.6C513.7,50.7,525,45.9,540.2,46.6z"/>
	<path class="st1" d="M734.3,150c0.7-27.4,9.7-51.4,28.8-71.4c2.3-2.4,4.8-4.6,7.3-6.8c11-9.1,19.9-3.3,25.2,4.7
		c15.2,23,23.2,48.3,25.8,75.7c1.6,17.4,2.4,34.7-3.5,51.3c-3,8.4-6.8,16.7-11.7,24.1c-7.6,11.5-17.9,14.6-31.3,11.4
		c-16.5-4-27.6-14-33.5-29.8c-4.9-13.3-6.3-27.2-7-41.1C734,161.9,734.2,155.9,734.3,150z M778.9,87.5
		c-10.7,10.7-18.2,22.2-22.2,35.9c-4.4,14.9-5,30.3-3.8,45.6c0.8,10.9,2.9,21.8,5.6,32.4c2.7,10.5,10.3,16.8,20.9,19.4
		c5.1,1.2,9.6,0.1,12-4.7c3.4-6.8,6.9-13.7,9.2-20.9c5.3-16.3,2.9-33,0.7-49.5C798.5,124.9,792.8,105.2,778.9,87.5z"/>
	<path class="st2" d="M1075.5,149.5c8-29.1,15.4-56.4,22.9-83.6c0.8-2.9,1.3-5.9,2.6-8.6c2.5-5.2,6.9-7.1,11.4-5.5
		c4.1,1.5,6,5.2,4.8,10.7c-3.7,16.2-7.1,32.5-11.6,48.5c-6.8,24.3-14.4,48.5-21.9,72.6c-5.8,18.9-14,36.6-24.4,53.4
		c-4,6.5-7.3,13.5-10.9,20.2c-1.3,2.3-2.3,4.8-4,6.9c-2.3,2.7-5.4,3.9-9,2.6c-3.8-1.3-6.1-4.2-6-8.3c0.1-2.6,0.5-5.4,1.6-7.7
		c3.7-7.8,7.3-15.7,11.7-23.1c10-16.6,17.7-34.2,23.8-52.7c1.5-4.7,1.1-7.4-2.5-11.2c-10-10.6-20.4-21.2-28.6-33.2
		c-13.4-19.4-25.3-39.9-37.7-60c-2.1-3.4-3.6-7.2-4.6-11c-1-4,0.9-7.2,4.7-9c3.4-1.7,6.7-0.7,9.1,2c1.9,2.2,3.2,5,4.8,7.5
		c13.8,21.6,27.4,43.3,41.5,64.7C1058.7,133.5,1065.4,141.4,1075.5,149.5z"/>
	<path class="st2" d="M261.2,191.2c0,8.7,0.6,10,8.4,9c12.8-1.6,25.6-4.2,38.3-6.6c6.9-1.3,13.6-3.4,20.5-4.6
		c2.7-0.5,6.1-0.1,8.5,1.1c5.2,2.7,5.8,9.4,1.6,13.6c-1.1,1.1-2.6,2.2-4.2,2.6c-21.4,6.2-42.8,12.7-65.3,13.9c-3,0.2-6-0.1-8.9-0.7
		c-10.9-2-17.2-8.5-17.8-19.6c-0.7-11.9-0.7-23.9-0.6-35.9c0.2-20.3,0.8-40.6,1.3-60.9c0.2-9.5,4.5-12.3,13.9-11.8
		c11.9,0.7,23.9,0.1,35.8-0.4c13-0.6,25.9-1.7,38.8-2.6c5.7-0.4,9.7,2.4,10.5,7c0.9,4.5-1.8,8.7-7.4,10.3c-3.5,1-7.2,1.6-10.8,1.8
		c-18.6,1-37.2,1.8-55.9,2.6c-6.9,0.3-7,0.3-7.1,7.4c-0.3,16.3-0.6,32.6-0.8,48.9c-0.1,5.9,0.4,6.6,6.2,5.9c15.5-1.8,31-4,46.5-6.1
		c2.3-0.3,4.6-0.8,6.9-0.7c4.1,0.3,6.8,2.8,7.7,6.7c0.9,4.1-0.8,7.5-4.4,9.1c-3.6,1.6-7.5,2.8-11.4,3.3
		C295.1,186.9,278.6,189,261.2,191.2z"/>
	<path class="st2" d="M198,192.6c-11.1,2.2-21.5,4.2-31.9,6.2c-2.8,0.6-3.8,2.4-3.6,5.1c0.2,2,0.4,4,0.5,6
		c0.6,9.6-1.9,14.3-7.9,14.6c-5.9,0.3-9.1-3.7-10.3-13.3c-0.8-5.9-1.5-11.9-1.8-17.9c-1.5-28.9-2.8-57.9-4.1-86.8
		c-0.1-3.3,0-6.7,0.7-9.9c1.1-5.7,4.9-8.9,9.4-8.5c4.6,0.4,7.3,4.1,7.6,10.1c1.2,23.9,2.3,47.9,3.6,71.8c0.2,3.6,0.8,7.2,1.3,11.7
		c10.8-2.1,20.9-4.1,30.9-6.1c4.7-0.9,4-4.6,3.7-7.9c-1.3-15.3-2.8-30.5-4.1-45.8c-0.9-9.9-1.7-19.9-2.3-29.9c-0.2-2.9,0-6,0.8-8.8
		c1-3.5,3.8-5.3,7.6-5.4c3.8-0.1,6.4,1.8,7.8,5.2c0.7,1.8,0.9,3.9,1.1,5.8c4.2,41.7,8.4,83.5,12.6,125.2c0.2,2.3,0.6,4.7,0.4,7
		c-0.4,4.6-3.3,7.7-7.3,8.3c-4.2,0.6-7.9-1.3-9.5-5.6c-1.1-2.8-1.4-5.8-1.9-8.7C200,207.7,199.1,200.5,198,192.6z"/>
	<path class="st2" d="M714,64.1c-0.4,4.3-2.8,7.1-6.6,8c-3.8,0.9-7.9,1.2-11.9,1.3c-10,0.4-20,0.5-30,0.9c-6.5,0.3-6.9,0.6-6.9,6.9
		c0.1,12,0.6,24,0.7,36c0.4,36,3.8,71.8,7.8,107.5c0.8,7.6,0.9,15.3,1.3,22.9c0.1,1.3,0.1,2.7-0.1,4c-0.8,4.5-3.7,7.5-7.7,8.1
		c-4.3,0.6-8.2-2-9.8-6.8c-0.6-1.9-0.9-3.9-1.1-5.9c-1.8-20.9-4-41.8-5.2-62.7c-1.5-25.6-2.4-51.2-3.4-76.8
		c-0.3-8.6-0.2-17.3-0.5-26c-0.2-5.8-0.3-5.9-6.5-5.9c-7,0.1-14,0.6-21,0.6c-4.3,0-8.7-0.1-12.9-1c-5.5-1.3-8.2-5.6-7.3-10.3
		c0.8-4.2,4.1-6.5,9.7-6.8c12-0.5,24-0.7,35.9-1.5c20.9-1.4,41.8-1.3,62.7-1.9c2.3-0.1,4.7,0.1,6.9,0.8C712.2,57,714.1,60,714,64.1z
		"/>
	<path class="st2" d="M1380.4,138.5c14.6-0.8,29.3-1.6,43.9-2.3c2.7-0.1,5.3-0.4,8-0.1c4.1,0.5,6.5,3.2,7.2,7.2
		c0.6,3.7-1,6.9-4.2,8.3c-3.6,1.6-7.6,2.8-11.4,3c-11.3,0.7-22.6,1-33.9,1.2c-13.9,0.3-14.1,0.3-13.2,14.2c1,16.3,2.4,32.5,3.8,48.8
		c0.6,6.7-1.3,10.7-6.2,11.8c-4.9,1.1-9.3-1.4-11.1-7.6c-1.4-4.7-2.1-9.8-2.3-14.7c-1.3-32.6-2.4-65.2-3.5-97.8
		c-0.1-2-0.3-4-0.5-5.9c-1.1-8.4,0.7-11.9,8.9-13.7c8.8-1.9,17.7-3.1,26.6-4.2c12.2-1.6,24.5-3,36.7-4.2c3.3-0.3,6.7-0.4,9.9,0.2
		c4.1,0.7,6.3,3.6,6.6,7.7c0.2,3.7-1.6,6.6-5,7.8c-2.8,1-5.8,1.4-8.8,1.8c-16.2,2-32.4,3.7-48.6,5.7c-8.6,1-8.7,1.2-8.6,9.8
		c0.1,6,0.1,12,0.4,18C1375.2,138,1375.7,138.2,1380.4,138.5z"/>
	<path class="st1" d="M1277.6,151.5c0.2-9.8,2.9-22.4,8.5-34.4c3.1-6.7,7.3-12.7,13.7-16.7c12.3-7.7,28.1-4,34.1,9.1
		c8.4,18.4,15.9,37.4,16.5,58.1c0.3,12.1-0.6,24-5.5,35.2c-3.9,9.1-9.8,16.6-18.6,21.5c-12.7,7-25.9,4.8-34.9-6.5
		c-3.8-4.8-6.7-10.8-8.7-16.6C1277.4,186.2,1276.7,170.5,1277.6,151.5z M1295.2,155.7c0,4.3-0.3,8.7-0.1,13
		c0.7,11.7,1.8,23.3,7.5,33.9c4.6,8.5,12.1,9.9,18.6,2.9c3.7-4,6.8-9.2,8.4-14.4c5.1-16.1,2.8-32.3-1.8-48.2c-2-7-5.4-13.6-7.7-20.5
		c-1.2-3.6-1.9-7.5-6.2-8.1c-4.5-0.6-7.3,2.6-9.5,6.1c-1.2,2-2.3,4.1-3.2,6.2C1297.2,135.8,1295.6,145.7,1295.2,155.7z"/>
	<path class="st2" d="M40.3,89.5c23.6-0.4,47.3-0.7,70.9-1.1c2,0,4-0.3,6,0c4.9,0.7,8.2,4.1,8.5,8.4c0.4,4.4-2.2,8.1-7.1,9.6
		c-2.5,0.7-5.2,0.9-7.9,1c-8,0.3-16,0.4-24,0.6c-6.7,0.1-7,0.2-6.5,6.7c0.9,14,2,27.9,3.2,41.8c1.6,18.9,3.5,37.8,5.1,56.7
		c0.7,8.3-2,13.2-7.7,14.1c-5.9,1-10.3-3.5-11.1-12.5c-2.2-26.2-4.2-52.5-6.2-78.7c-0.6-7.6-1-15.3-1.3-22.9
		c-0.2-3.7-1.8-5.3-5.6-5.3c-7.3-0.1-14.7-0.3-22-1c-3.5-0.3-7.2-1.5-10.3-3.2c-3.3-1.9-5-5.4-3.6-9.5c1.3-3.9,4.2-5.9,8.4-5.8
		c3.7,0.1,7.3,0.4,11,0.6C40.3,89.2,40.3,89.3,40.3,89.5z"/>
</g>
</svg>
