<?xml version="1.0" encoding="utf-8"?>
<!-- Generator: Adobe Illustrator 21.1.0, SVG Export Plug-In . SVG Version: 6.00 Build 0)  -->
<svg version="1.1" id="Layer_1" xmlns="http://www.w3.org/2000/svg" xmlns:xlink="http://www.w3.org/1999/xlink" x="0px" y="0px"
	 viewBox="0 0 1773.7 501.7" style="enable-background:new 0 0 1773.7 501.7;" xml:space="preserve">
<style type="text/css">
	.st0{fill:#2669B3;}
</style>
<g>
	<path class="st0" d="M1368.9,252.7c-4.2,9-8.5,17.8-12.5,26.9c-4.6,10.3-8.8,20.7-13.2,31.1c-0.7,1.6-1.1,3.4-1.5,5.2
		c-1.3,5.3-6.4,8.4-11.3,6.8c-4.4-1.5-6.3-6.7-4.1-11.7c11.3-25.4,22.2-50.9,34.2-75.9c8.8-18.3,19.7-35.6,35.5-48.8
		c6.1-5.1,13.2-9.6,20.5-12.7c15.4-6.7,29.6-1.4,38.1,13.2c7.9,13.6,10.8,28.1,5,43.2c-5.2,13.7-15.3,22.5-29.8,25.3
		c-12.3,2.4-24.5,1.3-36.6-1.9c-1-0.3-2.2,0-3.4,0c0.1,1.1-0.1,2.4,0.2,3.4c8.1,24.2,11.9,49.2,14.4,74.5c0.8,8.5,1.6,17,2.3,25.5
		c0.3,3.5-2.3,7.1-5.8,8.3c-3.3,1.1-7.5,0-9-3.2c-1.6-3.8-3-7.9-3.3-12c-1.6-25.5-5.1-50.8-11.1-75.6c-1.8-7.3-4.7-14.4-7.1-21.6
		C1370,252.6,1369.4,252.6,1368.9,252.7z M1405,238.3c0,0.3-0.1,0.7-0.1,1c4,0.3,8.1,0.9,12.1,0.8c7.5-0.1,15-0.7,21.1-6.2
		c13.2-12,9.6-32.3,0-43.3c-3.6-4.2-8.1-4.9-13.1-3.7c-1.9,0.4-3.8,1.1-5.5,2c-19.2,9.7-30,27.1-40.5,44.7c-0.2,0.3,0.9,1.9,1.5,2
		C1388.6,236.7,1396.8,237.5,1405,238.3z"/>
	<path class="st0" d="M1485.6,411c1.9-3.3,3.1-5.9,4.7-8.2c5.4-7.6,11-15,16.2-22.7c1.3-1.9,2-4.6,2-6.9c0.1-4.5,2.2-7.8,6.6-8
		c3.1-0.2,4.9-1.7,6.7-3.7c15.4-16.8,30.7-33.7,46.3-50.4c4.4-4.7,9.5-8.8,14.5-12.7c2.2-1.7,5.1-2.6,7.8-3.2c3.3-0.7,5.9,1,7.3,4
		c1.5,3.2,1,6.6-2,8.5c-15.3,9.6-25.7,24.2-37.7,37c-8.6,9.2-16.5,19-24.8,28.4c-2.4,2.7-2.7,4.6,0,7.5
		c12.8,13.3,26.1,26.1,40.7,37.4c3.4,2.6,4.7,1.5,6.7-1.1c12.4-15.8,24.7-31.7,37.6-47.1c8.4-10,17.6-19.2,26.6-28.7
		c1.3-1.4,3-2.5,4.6-3.5c4-2.5,8.1-2,10.5,1.2c2.3,3.2,1.6,7.1-1.7,10.5c-6.8,7-13.9,13.7-20,21.2c-14.7,18.2-28.6,37-43.2,55.3
		c-10.5,13.3-21.5,26.2-32.3,39.2c-1.6,1.9-3.7,3.6-5.7,5c-4.2,2.9-8.5,2.6-11.4-0.7c-3.1-3.6-2.9-7.1,0.7-11.3
		c6.1-7,12.1-14.1,18.3-21c1.9-2.1,2-3.1-0.3-4.9c-15.1-11.7-28.7-25-41.3-39.4c-2.3-2.7-3.5-2.5-5.6,0.4
		c-5.2,7.5-10.8,14.8-16.2,22.1c-4,5.4-9.3,6.8-12.8,2.7C1487.1,415.7,1486.5,413,1485.6,411z"/>
	<path class="st0" d="M366.3,168.2c0.2-8,2.9-15.7,7.8-22.8c11-16,30.1-18.1,43.5-4.2c13.4,13.8,16,30.5,11.5,48.6
		c-2.8,11.1-9.7,19.9-17.7,27.9c-2.5,2.5-2.9,3.8,0.1,6.5c13.8,12.4,29.8,21.5,45.9,30.6c12.8,7.2,26.5,12.3,40.4,16.8
		c4,1.3,7.9,3.1,9.2,7.6c1.8,6.4-4.6,12-11.9,10.2c-5.5-1.4-10.8-3.2-16.1-5.2c-27.7-10.5-53.1-25.1-76-43.9c-1-0.8-2.5-1-3.7-1.5
		c0.1,1.2,0,2.6,0.4,3.7c9.7,23.5,21.2,46.2,35.3,67.4c1.1,1.6,2.7,2.9,4.1,4.4c3.1,3.2,3.5,7.1,1.1,10.4c-2.2,3.1-6.9,4.6-10.2,2.6
		c-2.9-1.7-6-3.9-7.8-6.7c-24-35.9-42.8-74.3-52.8-116.6C366.6,192.4,364.6,180.7,366.3,168.2z M389.7,215.5c3.3-3.4,6-6.1,8.6-8.8
		c8.2-8.5,15.4-17.7,15.2-30.3c-0.1-9-1.7-17.6-9.1-23.9c-5.7-4.9-11.7-4.5-15.7,1.8c-2.5,3.9-4.5,8.6-5.2,13.2
		C381.1,183.8,385.4,199.4,389.7,215.5z M397.9,236.6c-0.1,0.1-0.3,0.2-0.3,0.3c0,0.1,0.2,0.2,0.3,0.4c0.1-0.1,0.3-0.2,0.3-0.3
		C398.2,236.9,398,236.7,397.9,236.6z"/>
	<path class="st0" d="M1314.9,191.2c-3.8,21.4-9.7,42.2-16.4,62.8c-2.9,8.9-5.5,17.8-8.4,26.6c-1.1,3.5-3.2,6.3-7.2,6.5
		c-5.8,0.3-9.5-4.2-8.1-10.2c1.5-6.6,3.5-13.1,5.4-19.5c2.3-7.9,4.8-15.8,7.2-23.7c0.7-2.4,0.3-3.9-2.4-4.8
		c-14.5-4.6-29.1-8.6-44.4-9.7c-2.7-0.2-3.9,0.5-5.1,3c-4.3,9.7-8.9,19.3-13.3,29c-1.1,2.6-1.6,5.5-2.2,8.2
		c-1.1,5.3-4.6,8.5-8.8,7.8c-4-0.7-7-4.7-5.9-9.8c1.5-6.5,3.4-13.1,6.1-19.2c12.7-28.7,26.3-57,44.8-82.6
		c7.5-10.4,15.9-20,26.4-27.5c5.8-4.2,11.9-7.5,19.6-6.3c8,1.3,11.5,7,13.9,13.8c3.2,9,2.4,18.4,1.7,27.7
		C1317.3,172.7,1316,182,1314.9,191.2z M1299.3,186.6c-0.2,0-0.4-0.1-0.6-0.1c1-5.9,2.5-11.8,2.9-17.8c0.6-8.5,0.9-17.1,0.3-25.6
		c-0.5-6.6-2.6-7.2-8.1-3.7c-1.5,0.9-3,1.9-4.4,3.1c-19.3,15.8-31.1,37-42.8,58.4c-1.8,3.3,0.2,3.4,2.5,3.7
		c14.1,1.6,27.9,4.4,41.2,9.4c2.7,1,3-0.3,3.5-2.3C1295.5,203.3,1297.4,195,1299.3,186.6z"/>
	<path class="st0" d="M1187.1,104.2c-7.3-1.2-14.5-2.7-21.8-3.6c-4.9-0.6-9.9-0.5-14.8-0.5c-0.8,0-2.1,1.1-2.4,2
		c-3.6,9.9-7.1,19.8-10.4,29.8c-3.8,11.4-7.3,22.9-10.9,34.4c-1.4,4.4-2.5,9-3.8,13.4c-0.7,2.4,0.2,3.3,2.6,3.4
		c19,1,38.1,2.1,57.1,3.1c2.4,0.1,4.8-0.5,7.2-0.4c4.9,0.1,7.6,2.4,8.3,6.6c0.6,3.7-1.5,7.1-6.1,8.2c-4,0.9-8.3,1.5-12.5,1.2
		c-18.3-1-36.6-2.3-54.9-3.5c-6.4-0.4-7.2,0.4-7.6,6.8c-0.1,1.3-0.1,2.7-0.2,4.1c-0.3,6.3,1.9,9.7,7.9,11.3c4.5,1.2,9.1,2,13.7,2.6
		c12.8,1.9,25.6,3.6,38.4,5.5c4.7,0.7,7.7,3.9,7.7,8c0,3.9-2.6,7.3-7.4,7.5c-5.5,0.3-11.1-0.2-16.5-1c-12.9-1.8-26-3.2-38.7-6.1
		c-13.7-3.1-21.6-12.4-21.4-24.3c0.1-7.3,0.9-14.8,2.9-21.8c6.9-23.8,14.3-47.4,22-71c3.5-10.8,8-21.4,12.4-31.9
		c2-4.8,5.7-6,10.3-4.6c2.5,0.7,5.1,1.1,7.7,1.3c11.9,1.3,23.9,2.1,35.8,3.8c10.3,1.4,20.4,3.6,30.6,5.5c3.3,0.6,6,1.7,7.1,5.3
		c1.4,4.6-0.9,9.2-5.8,9.6c-4.3,0.3-8.7-0.2-13-0.8c-7.9-1.1-15.7-2.6-23.6-3.9C1187.1,104.1,1187.1,104.2,1187.1,104.2z"/>
	<path class="st0" d="M391.4,329.1c-1.8,17.9-10.2,28.7-21.6,30.9c-10.7,2.1-20.1-1-28.8-6.6c-14.3-9.2-24.4-22.4-33-36.8
		c-15.4-25.8-24.9-53.6-27.8-83.5c-1.1-11.1-1-22.3,4.3-32.7c5.5-10.7,16-13.4,25.8-6.3c6.4,4.6,12.8,9.4,19.1,14.2
		c17,12.9,28.8,30.2,39.5,48.3c10.5,17.9,18,37,21.5,57.5C391.3,319.9,391.1,325.9,391.4,329.1z M296.7,216.1
		c-0.8,13.9,1.2,26.1,4.3,38.3c6.6,26,17.1,50,34.6,70.6c6.5,7.7,13.7,14.6,23.8,17.3c6.3,1.7,10.2-0.4,12.5-6.4
		c2.6-6.7,1.6-13.5,0.4-20.2c-4.2-23.5-14.3-44.6-27.7-64.1c-8.9-12.9-18.9-24.9-32.5-33.4c-3.9-2.5-6.9-6.4-10.1-9.9
		c-1.7-1.8-2.7-2-3.4,0.4C297.7,211.5,297.1,214.4,296.7,216.1z"/>
	<path class="st0" d="M1057,36.5c6.5,1.2,12,4.1,16.6,8.7c2.8,2.8,4.6,6.5,3.1,10.2c-0.9,2.2-3.7,4.4-6.1,5.1
		c-2.9,0.8-6.3,0.2-8.4-2.9c-3.3-4.7-9-6.7-14.7-5.3c-16,4-24.7,19.5-19.9,35.1c3.4,11.2,9.8,20.9,15.9,30.7
		c6.8,11.1,14.3,21.9,20.1,33.6c7.9,15.7,10.8,32.6,7.2,50.2c-3.7,18.2-17.5,31.5-36,33.4c-17.1,1.7-32.4-7.5-41.3-22.2
		c-2.1-3.5-1-7.7,2.1-10.1c3.3-2.6,7.3-2.4,10.6,0.6c3.2,2.9,5.9,6.4,9.3,9.1c9.9,8,24.1,7.3,32.3-1.6c5.3-5.8,7.2-13,7.6-20.7
		c0.7-15.9-4.6-30.1-12.8-43.4c-7.3-11.9-15-23.6-22-35.6c-4.9-8.4-9.1-17.3-10.4-27.2c-1.9-14,2.9-25.7,12.9-35.4
		c7-6.7,15.1-11.4,24.9-12.4C1051,36.1,1054,36.4,1057,36.5z"/>
	<path class="st0" d="M572.2,272.9c-0.1,1-0.1,2-0.3,3c-0.8,4.6-4.3,7.7-8.4,7.7c-4.7,0-8.3-2.8-9-7.6c-0.5-3.4-0.6-7-0.8-10.4
		c-0.6-15.3-1.1-30.6-1.7-45.8c-0.1-3.2-1.5-4.4-5-5.3c-5-1.3-9.7-4.1-14.2-6.9c-26.7-16.5-49.4-37.6-69-62.1
		c-3.4-4.3-6.5-8.9-9.6-13.3c-0.9-1.2-1.7-2.5-2.2-3.9c-1.8-4.4-0.5-8.5,3.3-10.8c3.5-2.1,7.4-1.2,10.5,2.7
		c5.6,7,10.9,14.3,16.6,21.2c17.8,21.5,39.2,38.7,62.7,53.4c0.9,0.5,2,0.6,3.1,0.9c0.1-1.1,0.3-2.3,0.2-3.3
		c-4.2-26.3-8.5-52.5-12.7-78.8c-0.5-3.1-1-6.3-1.1-9.4c-0.1-2.1,0.2-4.4,0.9-6.3c1.4-3.8,4.4-5.9,8.6-5.4c4.2,0.5,6.3,3.3,7,7.3
		c5.5,33.1,11.2,66.1,16.4,99.3C571.2,223.4,573.5,248,572.2,272.9z"/>
	<path class="st0" d="M184.4,466.4c-4.8-1.4-9.7-2.4-14.2-4.2c-6.1-2.5-8.1-6.8-6.3-11.7c1.9-5.3,6.1-7.3,12.7-5.3
		c9.3,2.9,18.4,2.5,27.3-1.2c2.7-1.2,5.3-2.8,7.6-4.7c6.3-5.3,7.3-11.7,2.8-18.7c-5.5-8.5-13.8-13.8-22.4-18.5
		c-14.1-7.7-28.8-14.5-42.6-22.8c-19-11.5-32.2-27.8-35.8-50.4c-2.7-17,3.1-31.8,18.6-37.8c8.4-3.2,16.4-1.7,23.9,2.8
		c3.5,2.1,6.9,4.6,10,7.4c3.9,3.5,4.4,8,1.9,11.6c-2.6,3.7-7.6,4.6-12.1,2.1c-2.5-1.4-4.7-3.1-7.2-4.5c-8.6-5.1-16.2-1.5-17,8.6
		c-0.8,9.1,2.4,17.3,7.1,24.9c7.7,12.4,19.6,19.5,32,26.1c13.9,7.4,28.1,14.4,41.6,22.5c9.2,5.5,16.7,13.1,21.3,23.1
		c6.2,13.2,2.6,28.2-9.1,38.3C213,463.8,199.5,467.1,184.4,466.4z"/>
	<path class="st0" d="M241.8,229.5c2.4,2.3,5.1,4.1,6.4,6.6c1.9,3.6,0.4,7.3-2.7,9.8c-6.8,5.6-13.6,11.2-20.9,16.1
		c-3.7,2.5-4.1,4.3-1.8,7.9c19.4,31.3,38.8,62.7,58.1,94.2c7.7,12.6,15.3,25.3,22.8,38c2.6,4.4,1.6,9.4-1.9,12.1
		c-3.9,3-9.1,2.8-12.5-1.5c-3.7-4.6-6.5-10-9.6-15.1c-12.6-20.2-25.4-40.2-37.6-60.6c-11.6-19.2-22.7-38.7-33.9-58.1
		c-3-5.2-2.8-5.3-8-2.1c-5.9,3.7-11.8,7.4-17.8,11.1c-6.2,3.8-13,1.5-14.2-4.9c-0.8-4,1.5-6.9,4.3-8.9c5.4-3.9,11.1-7.3,16.6-11
		c15-9.9,29.9-19.9,44.9-29.8C236.1,231.9,238.6,231,241.8,229.5z"/>
	<path class="st0" d="M1460.1,387.8c-25.3-4.6-35.6-26.6-28.6-49.8c5.1-17.1,14.7-31.9,25.7-45.7c11.3-14.3,24-27.2,39.4-37.3
		c5.7-3.7,11.7-6.6,18.6-7.6c12.1-1.8,22.5,5,24.6,17c0.8,4.6,0.4,9.5-0.2,14.2c-0.5,4.2-3.9,6.3-7.7,5.8c-3.9-0.5-6.4-3.7-6.3-8
		c0.1-2.5,0.4-5.1-0.1-7.6c-1.2-5.5-4.3-7.4-9.6-5.5c-3.9,1.3-7.8,3.2-11.2,5.5c-21.5,15-37.8,34.6-50.2,57.4
		c-2.7,5-5.3,10.2-6.8,15.6c-3.7,13.1-2.1,22.4,7.9,27c5.4,2.5,11.9,2.3,18,3.1c1.8,0.2,3.6-0.3,5.4-0.1c4.3,0.4,7,3.1,7.2,6.7
		c0.2,4.2-1.9,7.5-6.2,8C1473.2,387.3,1466.6,387.4,1460.1,387.8z"/>
	<path class="st0" d="M725.2,116.4c2.1-5.9,3.8-11.9,6.5-17.6c2.4-5.1,7.4-7.4,12.8-8.7c4.3-1,7.7,1,9.8,5c0.7,1.4,1.4,3.2,2.7,4
		c15.3,9.9,22.2,25.1,26.5,41.9c2.7,10.7,4.4,21.5,0.4,32.4c-4.6,12.7-16.4,17.6-28.4,11.6c-11.4-5.7-17.8-15.5-22.5-26.9
		C727.4,144.9,725.1,131.1,725.2,116.4z M742.6,118.8c-0.6,12.2,3.1,29,9.8,39.3c2.4,3.7,5.5,7,8.9,9.8c3.7,3,5.9,2.1,6.1-2.7
		c0.3-5.9,0.2-12-1.1-17.8c-2.6-12-6.6-23.5-16.8-31.5c-1.5-1.2-3.3-2.1-5-3.1C743.9,114.9,743.2,116.9,742.6,118.8z"/>
	<path class="st0" d="M783.2,93.8c1.1-9.1,3.9-12.2,12.1-14.2c11.6-2.8,23.2-5.7,34.9-8.2c2.6-0.5,5.8-0.2,8.1,0.9
		c3,1.4,4.4,4.6,3.7,8.1c-0.6,3.2-2.3,5.7-5.9,6.6c-10.6,2.6-21.2,5.6-31.9,8c-3.7,0.8-4.3,2.4-3.3,5.5c1.1,3.3,2.1,6.7,2.8,10.1
		c0.6,2.7,2,2.9,4.3,2.4c10.7-2.3,21.4-4.6,32.2-6.6c7.6-1.5,13.1,3.8,11.3,10.6c-1.1,4.1-4.3,5.8-8,6.6c-9.3,1.9-18.6,3.6-27.8,5.4
		c-6.6,1.3-6.6,1.4-4.9,7.7c1.8,6.7,3.6,13.5,5.5,20.2c1.7,5.9-0.4,10.6-5.8,12.5c-4.2,1.5-9.3-1.4-10.9-7
		c-3.2-11-6.2-22.1-8.9-33.2c-2.7-10.8-5-21.7-7.4-32.5C783.2,95.5,783.3,94.4,783.2,93.8z"/>
</g>
</svg>
