<?xml version="1.0" encoding="utf-8"?>
<!-- Generator: Adobe Illustrator 21.1.0, SVG Export Plug-In . SVG Version: 6.00 Build 0)  -->
<svg version="1.1" id="Layer_1" xmlns="http://www.w3.org/2000/svg" xmlns:xlink="http://www.w3.org/1999/xlink" x="0px" y="0px"
	 viewBox="0 0 1542 192" style="enable-background:new 0 0 1542 192;" xml:space="preserve">
<style type="text/css">
	.st0{fill:#2669B3;}
</style>
<path class="st0" d="M22.3,52.5c-5.3,0-7.2,1.3-8.7,7.1c-1.6,6.3-0.4,9.1,4.8,11.2c6.4,2.6,12.9,3,19.6,1.7c5.2-1,10.4-1.9,15.6-2.9
	c2.6-0.5,4.5-0.1,5.1,3c2,10,4.2,20,6.3,30c1.7,7.7,3.4,15.4,5.1,23.1c0.1-0.1,0.2-0.2,0.4-0.3c0.2-0.2,0.5-0.4,0.7-0.7
	c-0.2,0.2-0.5,0.5-0.7,0.7c-0.1,0.1-0.2,0.2-0.4,0.3c0.6,3.4,1.2,6.9,1.7,10.3c-0.2,0.6-0.1,1.1,0.5,1.5c0.3,1.3,0.5,2.6,1.1,3.7
	c3,5.6,7.4,8.3,11.6,7.2c3.7-0.9,5.5-4.1,4.6-11.6c-1.2-10.3-3.2-20.6-4.9-30.9c-2.1-11.4-4.1-22.8-6.5-34.1c-0.8-3.8-0.2-5.8,4-6
	c8.3-0.2,16.6-0.6,24.9-0.7c3.2-0.1,4.9,1.5,4.7,4.9c-0.2,3-0.6,6.1-0.1,9c2.8,17.2,5.9,34.4,8.8,51.6c0.4,6.8,3.2,12,9.9,14.5
	c2.7,1,4.9,0.6,6.8-2.2c3.2-4.6,3.5-9.1,1-13.9c-0.4-4.9-0.7-9.8-1.1-14.7c15.9-6.7,15.9-6.7,19.8,9.3c0.2,1,0.6,1.9,0.9,2.9
	c2.5,8.9,4.2,18,10.4,25.4c2.6,4.4,6.5,5.3,10.9,3.3c3.5-1.6,5.1-6.4,4-11.1c-0.8-3.4-2.1-6.8-3.2-10.2c0.3-0.6,0.1-1-0.4-1.4
	c-1.1-3.3-2.1-6.7-3.2-10c-0.4-2.6-0.5-5.3-1.3-7.8c-3.7-11.3-2.2-22.1,3.2-32.5c0.2-0.3-0.4-1.1-0.8-2.1c-2.3-0.1-4.8-0.1-7.5-0.2
	c-0.5-3.7-0.9-7-1.3-10.3c-0.5-4.6-0.8-9.3-1.3-13.9c-0.4-3.6-0.6-7.2-1.4-10.7c-1.3-5.3-4.8-7-9.8-5c-5.1,2.1-7.7,6.3-7.6,11.7
	c0.2,9.2,0.5,18.5,1.3,27.7c1.2,13,2,9.1-9.1,13.1c-0.9,0.3-2,0.3-2.9,0.5c-2.9,0.8-4.4-0.4-4.7-3.3c-0.6-6.3-1.1-12.6-1.9-18.8
	c-0.9-6.9-1.5-13.9-3.3-20.5c-1.6-5.7-3.1-5.8-9-3.9c-2.6,0.8-4.4,3-8.2,1.7c-6.5-2.2-13.6-4.1-20.3-3.6
	c-18.8,1.5-37.8,2.4-56.3,6.6C30.2,52.2,26.2,52.5,22.3,52.5z"/>
<path class="st0" d="M1483.6,118.4c3.7-0.3,5.1,2.1,6.9,4.4c4.2,8.8,8.4,17.7,12.7,26.5c0.5,1.1,1.9,1.9,3,2.5c7,3.7,15-1.1,14-9
	c-0.6-4.7-3.2-9.2-5.3-13.6c-3.6-7.6-3.5-8.3,2.9-13.6c2.3-1.9,4.2-4.1,6.2-6.2c-0.4-0.4-0.9-0.7-1.3-1.1c0.5,0.3,0.9,0.7,1.3,1.1
	c6.4-9.4,6.4-9.4-4.8-11.4c-4.8,0.4-9.6,0.8-14.4,1.2c-1.4-2.6-3.3-5-4-7.8c-3.6-15.1-6.8-30.3-7.7-45.9c-0.3-5.7-2.8-8.3-7.4-8.7
	c-4-0.4-6.4,1.6-8.4,6.8c-2.8,7.5-1.4,15.2-0.4,22.7c1.1,8.5,3,16.9,4.5,25.4c0.9,5,0.1,6.1-4.8,6.1c-6.2,0-12.5-0.3-19-0.4
	c-3.4-18.7-9.2-37.1-9.2-56.5c0-3.4-1.7-5.6-5.1-6.5c-3.6-1-6.7-0.2-8.8,2.9c-1.1,1.6-1.6,3.6-2,5.5c-1.8,8.9-1.6,17.7,1.3,26.3
	c1.3,8.8,1.6,18,4.3,26.4c3,9.8-0.3,16.2-7.3,22c-8.7,0.5-17.3,1-26,1.5c-2.1-0.2-4.2-0.4-6.3-0.6c-0.4-0.5-0.8-0.6-1.4-0.3
	c-4.2-2-8.3-4-12.5-5.9c-1.2-0.2-2.4-0.4-3.6-0.5c-0.9-1.1-1.8-2.2-2.7-3.3c-0.5-0.8-1-1.6-1.5-2.4c-1.8-6.7-5-13.3-2-20.5
	c5.8-11.4,11.1-23.1,23.3-29.4c2,0.7,4.2,1.2,5.8,2.3c1.2,0.9,1.6,2.8,2.6,4.1c2.9,3.7,4.5,3.7,7.7-0.1c3.9-4.6,4.2-16.5,0.6-21.6
	c-0.2-0.3-1.3-0.2-1.9-0.2c0.1,0.6,0.1,1.2,0.1,1.7c0-0.5,0-1.1-0.1-1.7c-4-5.9-10.1-4.9-15.1-3.3c-9.3,3.1-18.2,7.4-23.4,16.6
	c-2.1,2.8-4.2,5.5-6.3,8.3c0,1.1-0.1,2.3-0.1,3.4c0-1.1,0.1-2.3,0.1-3.4c-5.2,5.9-7.2,13.2-9.7,20.4c-7.4,21.2,5.2,48.4,32.3,53.1
	l0.6,0.4l0.7-0.1c7,4,14.6,2.4,22.1,2.7c10.4,1.5,19.5-0.2,25.8-9.6l0.4-0.6c0.7-1.1,1.5-2.1,2.2-3.2l0.1-0.1
	c3.7-1.4,4.6,1.5,5.4,3.9c1.5,4.3,2.2,8.9,4,13.1c2.7,6.6,9.4,7.5,13.7,2c1.3-1.7,1.9-3.9,2.8-5.9c-0.9-0.3-1.8-0.6-2.8-0.8v0
	c0.9,0.3,1.8,0.6,2.8,0.8l-0.1-0.2c0.3-1.3,0.6-2.5,0.9-3.8c0.3-2.7,2.1-5.6-0.9-7.9c-4.2-7.3-1.1-9.2,5.4-8.5
	C1477,118.5,1480.4,118.7,1483.6,118.4z M1499.9,132.6c-0.4-0.2-0.8-0.4-1.1-0.6C1499.1,132.2,1499.5,132.4,1499.9,132.6z
	 M1498.2,131.4c-0.3-0.3-0.5-0.6-0.7-0.9C1497.7,130.8,1497.9,131.1,1498.2,131.4z"/>
<path class="st0" d="M661.7,166.3c-0.5,5.3,1.5,9,4.3,12.4c4.4,5.4,11,4,12.8-2.7c1-3.8,1.2-7.9,1.5-11.8
	c1.6-20.8,3.2-41.6,4.6-62.5c0.9-14.6,3.2-28.9,6.5-43.1c1.2-5.1,1.3-10.5,1.1-15.8c-0.2-4.3-3.5-6.4-7.7-5.6
	c-3.8,0.7-6.9,2.6-8,6.5c-3.3,10.8-7.5,21.3-7.1,32.9c-0.6,3.3-1.2,6.6-1.8,9.9c-0.2,1.9-0.4,3.8-0.6,5.6c-3.2-3.4-6.4-6.8-9.6-10.2
	c-1.4-2.6-2.7-5.2-4.4-7.6C645.7,63,638,51.9,630.7,40.6c-2.9-4.5-5-5.9-9.4-4.7c-4.2,1.1-6.9,5-5.8,9.7c1.2,4.7,2.6,9.7,5.2,13.7
	c5.2,8.3,11.3,16.2,17,24.2c2.5,3.5,5,7,7.5,10.5c0.7,1.2,1.4,2.5,2.1,3.7c5.7,8.3,11.4,16.7,17.1,25v0
	C663.5,137.3,663.1,151.8,661.7,166.3z"/>
<path class="st0" d="M206.6,48.7c-8.6,2.5-17,5.1-24.2,10.9c-2.8,2.2-3.5,4.5-3.1,7.7c1.8,15.1,4,30.1,5.2,45.2
	c0.9,10.8,3.7,20.8,8.6,30.2c6.8,12.9,11.2,19.2,30.2,14.3c14.8-4.9,28.2-11.4,32.6-28.3c0.4-1.7,0.5-3.5,0.7-5.3
	c-2.1,0.2-4.5-0.1-6.4,0.8c-8.1,3.7-16,7.8-23.9,11.7h0c0,0-0.2,0-0.2,0c-2.1,0.5-4.2,1-6.3,1.5c-0.7,0.1-1.3,0.2-2,0.2
	c-6.4-0.3-8.4-2.1-9.5-8.7c-0.7-4,0.7-5.4,7.3-7.4c1.3-0.4,2.6-0.5,3.8-1c5-2.2,10-4.4,15-6.7c0-0.2,0-0.3,0-0.5
	c0-0.3,0.1-0.7,0.1-1c0,0.3,0,0.7-0.1,1c0,0.2,0,0.3,0,0.5c9.6-4.4,16.8-10.6,18-21.9c1.9-6.2,1.9-6.2-5.4-5.3v0
	c-5.4,3-10.9,6-16.3,9c0,0,0,0,0,0c-9,3.5-17.8,7.5-27.8,9.3c-0.9-9.1-1.9-17.6-2.6-26.1c-0.6-7-0.3-7.6,6.4-10
	c6.1-2.2,12.5-3.9,18.8-5.8c4.1-1.1,8.8-1.3,12.2-3.5c4.3-2.8,10.5-4.7,10.4-11.7c1.1-2.1,3.4-4.5,2.9-6.1c-0.9-3-3.9-2.2-6.4-1v0
	c-7.5,1.6-15.1,3.2-22.6,4.7C216.9,46.5,211.6,47.3,206.6,48.7z M247,136.9C247,136.9,247,136.9,247,136.9c0.4-0.2,0.9-0.4,1.2-0.6
	C247.8,136.6,247.4,136.7,247,136.9z M248.3,135c0-0.1-0.1-0.3-0.1-0.4l0,0C248.2,134.7,248.2,134.9,248.3,135z M248.8,91.6
	c-0.3-0.2-0.5-0.3-0.8-0.6C248.2,91.3,248.5,91.5,248.8,91.6z M247,87.3c-0.1,1.4,0.2,2.5,0.7,3.3C247.2,89.9,247,88.7,247,87.3z
	 M244.7,41.3c0,0.7-0.2,1.6-0.3,2.3C244.5,42.8,244.7,42,244.7,41.3z"/>
<path class="st0" d="M536.2,35.9c-2.3,5.3-4.4,10.8-5.8,16.5c-0.6,2.2,0.2,5.8,1.8,7.4c6.6,6.5,6.5,14.8,7.2,23
	c1.2,14.8,2.4,29.6,3.7,44.4c1,4.5,2.6,9,2.9,13.5c0.3,6,4.2,9.6,7.8,13.2c4.1,4,8.6,2.6,10.2-2.9c2-6.7,0-13-1.8-19.3
	c-0.6-6.8-1.3-13.6-2.1-21.8c9.6,8.1,18,15.3,26.4,22.4c4.4,3.4,8.8,6.8,13.2,10.2c2.7,2.2,5.6,4.2,8.2,6.5c4.1,3.6,8.1,3.3,12-0.2
	c0.6-2.5,1.2-5.1,1.9-7.6c-0.5-2-1.1-4.1-1.6-6.1c-0.3,0.1-0.6,0.2-1,0.2c0.3,0,0.6-0.1,1-0.2c-0.4-2.2-0.7-4.4-1.1-6.6
	c-1.5-0.5-3-0.9-4.5-1.4c-3.1-0.9-6.1-1.9-9.2-2.8c-0.4,2.9-0.8,5.8-1.2,8.7c0.3,0.3,0.7,0.5,1.1,0.8c0.4,0.3,0.8,0.5,1.1,0.8
	c-0.4-0.3-0.8-0.5-1.1-0.8c-0.4-0.3-0.7-0.5-1.1-0.8c0.4-2.9,0.8-5.8,1.2-8.7l-0.3-0.4c-2.7-2.4-5.4-4.8-8.2-7.2
	c-7.3-6.2-14.5-12.4-21.8-18.6l0,0c-1.4-1.2-2.7-2.5-4.1-3.7l-0.2-0.2c-2.7-5.3-2.6-5.1,1.8-6.3c6.3-1.8,12.8-3.5,18.8-6.1
	c11.3-4.9,17.1-15,16.6-25.8c-0.6-12.8-10.4-22.1-20.8-24.6c-10.1-2.4-19.5-0.8-29,2.2c-3.4-0.3-6.7,1.3-10.4-1.4
	C544.2,29.5,538,31.8,536.2,35.9z M566.2,51.1c1-0.3,1.9-0.6,2.9-0.9l0.4,0.3l0.4-0.4c0.2-0.4,0.4-0.7,0.6-1.1
	c0.4-0.7,0.8-1.4,1.2-2.2c-0.4,0.7-0.8,1.4-1.2,2.2c-0.2,0.4-0.4,0.7-0.6,1.1c5.5,0.7,11.2,0.9,16.5,2.3c4.2,1.1,4.1,2.9,2,6.6
	c-2.9,5.2-9,5.2-13,8.4l-0.1,0.1c-2.9,0.8-5.9,1.5-8.8,2.3c0,0,0,0,0,0l-0.7,0c-3.3-1.1-7.9,2.2-9.8-3c0-0.7,0.1-1.3,0-2
	C554.6,53.4,554.6,53.4,566.2,51.1z"/>
<path class="st0" d="M409.2,37.1c-2.9,1.3-6.5,0.8-9.9,1.1c-2.6,0.3-5.2,0.5-7.8,1c-5.9,1.3-8.2,3.6-8.5,8
	c-0.3,3.6,3.7,9.3,7.7,10.5c2.2,0.6,4.5,0.7,6.8,0.7c4.6-0.1,9.1-0.5,14-0.9c0.5,3.8,1.1,7.4,1.5,11c2.5,23.1,5,46.1,7.6,69.2
	c0.2,2.2,0.8,4.6,1.8,6.6c2.3,4.5,6.8,7,10.3,6.2c4.1-0.9,6.3-3.9,6-10.1c-0.7-13.2-1.7-26.4-3-39.6c-1.3-13.2-3.3-26.3-4.7-39.5
	c-0.6-5.4,0.1-6.3,5.5-6.9c5.6-0.6,11.2-0.8,16.9-1.2c5-0.4,7.3-2.3,8.3-6.9c1.4-6.7-2.2-12.1-9.5-11.8
	C437.9,35.1,423.3,30.8,409.2,37.1z"/>
<path class="st0" d="M349,55.4c2.2-1.3,4.7-2.6,7.1-2.8c3.9-0.4,7.9,0.1,11.8,0.2c4.2,0.2,8.1-2.6,8.7-6.3c0.9-5.8-1.1-9.3-6.7-11.7
	c-10.7-4.6-24.5-1.4-34,7.5c-3.9,3.6-5.6,7.8-6.1,13.1c-1,10.5,1.3,19.8,8.6,27.6c2.7,2.9,5.4,5.9,8.1,8.8
	c8.8,9.5,19.3,17.4,25.4,29.2c0.3,3.8,1.6,8.6-2.9,10.3c-4.7,1.8-9.7,0.8-13.7-2.8c-1-0.9-1.6-2-2.5-3c-1.1-1.2-2.3-2.2-3.4-3.4
	c-1-6.2-1.8-12.4-3-18.5c-0.3-1.3-1.5-3.2-2.6-3.4c-1.1-0.2-3,1.1-3.6,2.3c-1.5,2.6-3.3,5.4-3.3,8.2c0,5.9-3.7,12.3,1.3,17.8
	c1.3,3,2.3,6.2,4.1,8.8c9.4,14.4,25.3,18.4,40.1,10.2c8.5-7,11.6-19.4,7.1-30.5c-3.6-9-8.6-17-15.9-23.8c-7.5-7-14.5-14.6-21.5-22.1
	c-2-2.2-3.4-4.9-5-7.4C344.7,60.3,345.6,57.4,349,55.4z"/>
<path class="st0" d="M1026.6,50.4c7.1-3.2,9.9-2.7,12.7,2.2c1.3,2.3,2.1,5,3.8,6.9c3.1,3.6,7.4,3.2,9.8-0.7c4.9-7.9-0.6-26.1-9-29.7
	c-0.9-0.4-1.9-0.8-2.9-0.9c-10.2-1.2-19.9,0.5-28.2,6.7c-2.5,1.8-4.4,5-5.7,7.9c-4.5,10.3-1.5,20,3,29.4
	c7.3,15.5,19.4,27.6,29.3,41.2c1.6,9.5-1.1,12.5-10,10.7c-6.8-1.3-7.7-2.7-8.7-12c-0.2-1.7-1.2-4.1-2.5-4.6c-1.4-0.6-4,0.2-5.3,1.3
	c-5.1,3.9-6.8,12.7-4.7,18.9c4.5,13.4,17.9,19.6,32,17.1c11.6-2.1,16.7-7.4,18-19c0.7-6.8-1.2-13.1-3.2-19.4
	c-2.1-3.7-4-7.5-6.5-10.9c-7.2-9.9-14.7-19.6-22-29.4c-1.4-1.9-2.7-3.9-3.5-6C1021,55.4,1022.3,52.3,1026.6,50.4z"/>
<path class="st0" d="M787.2,147.9c7.5,5.6,18.9,5.5,27,0.9c7.5-4.3,12.5-10.9,17.4-18c2.6,4.8,4.3,9.2,7.1,12.8
	c4.3,5.7,9.3,4.6,13.4-2.5c0.3-1.2,1-2.5,0.9-3.7c-0.6-14.6-5.3-28.3-8.3-42.4c0.6-8.1,0.6-8.1,7.9-8.1c2.3,0,4.6-0.2,7-0.2
	c1.2,0,2.4,0,3.7,0.1l0,0c7.6-0.3,15.2-0.2,22.8-1c9.8-1.1,12.6-4.1,14.9-13.8c1.1-4.6,0-5.8-4.8-5.8c-7.6,0.1-15.2,0.1-22.8,0.3
	c-3.3,0.1-6.5,0.6-9.7,1c-0.5-0.3-1-0.3-1.5,0.2c-6.1-0.1-12.2-0.2-18.3-0.4c-4.8-2.1-4.9-2.6-1.9-8.4c10.7-0.6,21.5-1.2,32.2-1.7
	c2.6-0.3,5.2-0.7,7.8-1c1.2,0,2.5,0,3.7,0.1c3.3,0,6.6,0.4,9.8,0c1.7-0.2,4.4-1.5,4.7-2.7c0.9-4.1,1.6-8.5,1-12.6
	c-0.2-1.2-4.9-2.3-7.6-2.5c-4.5-0.4-9.1-0.2-13.6-0.2c-5.1,0-10.3,0-15.4,0c-1.9,0-3.9,0-5.8,0c-2,0.4-4.1,0.8-6.1,1.2
	c-7.5,0-15-0.2-22.4,0.1c-7.7,0.3-10,2.8-10.1,10.4c0,1.6,0.4,3.3,0.7,4.9c-1,2.1-2.9,3.3-4.1,1c-1.5-2.8-3.4-3.4-6.1-3.4
	c-8.1-9.6-13.1-11.2-21.5-5.3c-4.1,2.9-7.9,7.2-10.3,11.7c-6,11.2-8.8,23.6-9.2,36.2c-0.3,8.1,0.5,16.3,0.8,24.4
	C771.3,131.4,777.4,140.7,787.2,147.9z M793,69.5c3.2-7.6,5.3-7.8,11.9-1.8c5.3,12.5,9.4,25.3,10.4,38.8c0.6,7.6-0.6,15.1-5.9,21.2
	c-9.9,7.5-11.7,7.1-21.2-4.4C783.7,104.8,785.8,86.9,793,69.5z"/>
<path class="st0" d="M520.2,135.6c9.1-14.4,5.7-29.6,2.5-44.7c-1-13.7-4.8-26.6-10.3-39.1c-0.7-1.5-2.6-2.4-3.9-3.6
	c0.5-2.6,1.2-5.2-1.5-7.1c-3.5-2.4-6.8-5.1-10.4-7.4c-1.3-0.8-3.3-1.4-4.7-1c-5.2,1.5-10.5,2.5-14.9,6.8
	c-13,12.7-16.8,28.6-17.5,45.8c-3.3,9.8-3.2,19.8-0.8,29.8l0,0.3c0.6,2,1.1,4,1.7,6.1c-0.2,0.7,0,1.3,0.6,1.8
	c3.9,12.9,12.2,21.7,24.8,26.3c0.8,0.2,1.5,0.3,2.3,0.5c5.9,1.5,11.7,2.5,17.1-1.6l0.5-0.2c2.7-1.8,5.4-3.7,8-5.5
	C515.9,140.3,518.6,138.2,520.2,135.6z M478.2,129.8L478.2,129.8C478.1,129.9,478.1,129.8,478.2,129.8z M488.3,130l-0.1,0
	c-3.3-0.1-6.6-0.2-9.9-0.3l0,0c3.3,0.1,6.6,0.2,9.9,0.3c-3.3-2.6-6.6-5.3-9.9-7.9c-3.8-7-4.5-14.5-3.5-22.2
	c1.4-10.8,2.7-21.7,5.3-32.3c1.2-4.8,4.9-9.3,8.4-13.2c3.4-3.8,4.8-3.2,7.3,1.2c0.8,1.4,1.6,2.9,2.3,4.3c2.6,8.9,5.1,17.7,7.7,26.6
	c0.6,5.9,1.6,11.8,1.8,17.7c0.2,4.6-0.1,9.2-0.9,13.7C504.9,127.5,497.4,133.8,488.3,130z"/>
<path class="st0" d="M1354.4,129.2c0.6-4.3,1.5-9.3-3.3-12.4c-3.3-3.4-7.4-4.4-12-4c-7.3-2.8-14.7-5.6-22-8.4c0,0,0,0,0,0
	c-5.7-2.7-11.4-5.4-18.8-8.9c5.7-2.2,9.6-3.6,13.5-5.2c7.5-3.2,15.5-5.7,19.7-13.6c2.5-4.2,5.6-8.3,4.4-13.7
	c0.9-9-4.3-14.4-11.3-18.6c-8.2-5.9-17.7-9.1-27.2-11.4c-11.8-3-24-5-36.3-1.8c-5.8-0.5-11.3,0.1-16.1,3.7c-4.3,0.8-7.4,2.9-8.3,7.5
	c0,0,0,0,0,0c-0.5,0.4-1.2,0.7-1.5,1.3c-2.6,4.9-1.8,11.5,1.8,14.1c4.4,3.2,7.2-0.1,10.2-2.6c0.5-0.4,1-0.8,1.6-1.2
	c6.9-4.4,9.6-3.2,11,4.7c1.3,7.7,2.5,15.4,3.8,23c-0.3,0.5-0.3,0.9,0.1,1.4c1,19.5,3.8,38.7,10,57.4c1.4,4.3,3.5,5.5,7.9,5.3
	c4.6-0.2,7.2-2.2,7.1-6.4c-0.1-5.8-1.1-11.6-1.7-17.4c0.5-2.9-3.7-7.9,3.5-7.9c1.7,1,3.5,2,5.2,3l0.6,0.2c6.1,2.3,12.3,4.7,18.4,7
	c9.1,3.5,18.1,7.4,27.4,10.5C1348.5,137.1,1353.6,134.7,1354.4,129.2z M1317.1,104.4C1317.1,104.4,1317.1,104.4,1317.1,104.4
	c-0.3,0-0.6,0-0.9,0C1316.5,104.4,1316.8,104.4,1317.1,104.4z M1290.1,51.9c2.7,0.8,5.4,1.6,8.1,2.4l0,0l0,0h0c0,0,0,0,0,0
	c5,2.3,9.9,4.6,14.9,6.8c3.7,4.2,4,5.2,0.2,7c-5.8,2.8-11.9,4.9-17.9,7.2c-3.9,1.5-8,2.6-12,3.9l0,0c-0.4-0.5-0.9-0.7-1.5-0.6
	c-1.7-8.9-3.3-17.7-5.1-27.1C1281.8,51.7,1286,51.8,1290.1,51.9z M1338.4,117.2L1338.4,117.2c1,3,2,6,3,9
	C1340.4,123.2,1339.4,120.2,1338.4,117.2z"/>
<path class="st0" d="M1225.9,143c0.8,3.6,2.1,7.2,6.8,7.1c5.9-0.1,8.5-2.1,8.9-8.1c0.3-5.1-0.7-10.2-1.2-15.3c0,0,0,0,0,0
	c-0.3-2.3-0.8-4.5-1-6.8c-1-8.4-2-16.9-3-25.3c0.2-0.9,0.8-2.3,0.6-2.5c-3.9-2.6-4.5-6.7-5.8-10.8c-4.4-13.3-8.5-26.8-18-37.6
	c-0.9-1-1.8-2.1-2.8-3.1c-0.3-0.6-0.8-0.9-1.5-0.8c-10.1-9.7-27.6-4.6-32.8,7.3c-5.1,11.5-8.9,23.2-10.1,35.7l-0.2,0.7
	c-0.7,0-1.2,0.4-1.3,1.1c-1,3.5-3.1,7.1-2.7,10.4c1.6,12.1-1.8,23.7-3.2,35.5c-0.3,2.6-0.6,5.3-0.3,7.9c0.5,3.8,5.9,8.9,8.8,8.3
	c4.2-0.8,7.3-3.1,7.7-7.9c0.1-0.7,0.1-1.3,0.2-2c1.2-7.2,2.5-14.3,3.4-21.6c0.5-4,2-6.1,6.3-5.7c1.3,0.1,2.6-0.2,4-0.4
	c9.6,0.1,19.2,0.3,28.8,0.4c1.3,4.1,2.6,8.2,3.9,12.2c0,0,0,0,0,0C1222.9,129,1224.3,136,1225.9,143z M1206.3,90.3
	c-5-0.2-10-0.3-14.9-0.4c0.6,0.4,1.1,0.9,1.7,1.3c-0.6-0.5-1.1-0.9-1.7-1.3c-2.3-0.3-4.6-0.6-6.9-0.8c-0.3-2.7-0.5-5.5-0.8-8.2
	l0.5-0.4l-0.2-0.6c1.4-4.6,3.5-9,4.2-13.7c0.8-5.5,3.6-8.7,8.5-10.6c9.4,5.1,11.5,14.8,15,23.6c0.4,0.9,0.6,1.8,0.9,2.7
	C1214.1,90.6,1214.1,90.6,1206.3,90.3z"/>
<path class="st0" d="M1144.2,79.2c-2-0.2-4.1,0.9-6.2,1.5c-10.7,2.2-21.4,4.4-32.1,6.6c-2.2,0.5-4.4,1.3-6.6,1.9
	c-0.5-0.2-1-0.2-1.5,0.2c-2.8-0.2-5.6-0.3-8.4-0.5c-0.5-6-0.9-12-1.4-18c-0.5-5.1,0.7-8.9,6.7-9.7c2.5-0.3,4.9-1.6,7.4-2.5
	c1.4-0.4,2.8-0.9,4.3-1.3c1.2-0.3,2.4-0.5,3.6-0.8c6-1.6,12.1-3.2,18.1-4.8c0.1-0.1,0.3-0.3,0.4-0.4c0.4-0.4,0.9-0.8,1.3-1.2
	c-0.5,0.4-0.9,0.8-1.3,1.2c-0.1,0.1-0.3,0.3-0.4,0.4c7.9,0.6,13.4-3.2,17.4-9.7c3.8-1.7,3.2-5.3,3-8.3c0-0.6-3.7-1-5.7-1.5
	c-12.3-0.2-24.2,1.3-35.9,5.3c-5.5,1.7-11,3.5-16.5,5.2c0,0,0,0,0,0l0,0c0,0,0,0,0,0c-2,0.2-4,0.3-6,0.5c-2.8-3.3-6.3-4.7-10.3-3
	c-4.5,1.9-6,6-5.5,10.7c0.4,3.9,1.1,7.8,1.7,11.7c0.4,12.9,0.6,25.7,1.1,38.6c0.2,6.3,0.6,12.6,1.6,18.7c1.2,7.6,4.8,14.1,11.1,18.9
	c10.3,7.1,21.2,5.5,32.3,2.6v0c5.3-1.2,10.8-1.9,16-3.6c9.1-2.9,12.8-8.9,12.5-19.2c-1.8-5.2-2.8-5.5-8.2-2.5
	c-9.5,2.3-19,4.7-28.4,7c-7.8,0.2-15.8,0.8-19.7-8.3c-0.7-3.6,3-3.7,4.4-5.6c0.1-0.7,0.2-1.2,0.3-1.6c-0.1,0.4-0.2,1-0.3,1.6
	c11.4-2.1,22.8-4.2,34.3-6.4c3.2-0.8,6.4-1.5,9.6-2.4c4.3-1.2,6.8-3.9,6.5-8.6c1.3-2.6,2.9-5.1,3.9-7.8
	C1148.3,81.3,1146.8,79.4,1144.2,79.2z M1090.5,42.8L1090.5,42.8c-0.6,0.9-1.1,1.5-1.7,1.8C1089.3,44.2,1089.9,43.6,1090.5,42.8z
	 M1084.7,117c-3.9-1.5-6.8-3.5-8.7-6.2c-0.5-0.8-1-1.6-1.4-2.4c0.4,0.9,0.9,1.7,1.4,2.4C1077.9,113.5,1080.8,115.5,1084.7,117
	L1084.7,117z M1093.3,107.2c0.1-0.4,0.2-0.6,0.3-0.8C1093.5,106.5,1093.4,106.8,1093.3,107.2z"/>
</svg>
